<svg width="93" height="93" viewBox="0 0 93 93" fill="none" xmlns="http://www.w3.org/2000/svg">
<path fill-rule="evenodd" clip-rule="evenodd" d="M21.9648 66.561C27.6736 59.2337 36.5259 54.5295 46.4643 54.5295C56.4027 54.5295 65.255 59.2337 70.9637 66.561C65.255 73.8298 56.4027 78.4965 46.4643 78.4965C36.5258 78.4965 27.6736 73.8298 21.9648 66.561ZM58.455 34.3139C58.455 41.0135 53.0873 46.4432 46.4643 46.4432C39.8413 46.4432 34.4736 41.0135 34.4736 34.3139C34.4736 27.6143 39.8413 22.1846 46.4643 22.1846C53.0873 22.1846 58.455 27.6143 58.455 34.3139Z" fill="white"/>
<path d="M90.5841 46.5C90.5841 71.3668 70.628 91.5 46.0421 91.5C21.4561 91.5 1.5 71.3668 1.5 46.5C1.5 21.6332 21.4561 1.5 46.0421 1.5C70.628 1.5 90.5841 21.6332 90.5841 46.5Z" stroke="#E41A4B" stroke-width="3"/>
</svg>
