<svg width="75" height="30" viewBox="0 0 75 30" fill="none" xmlns="http://www.w3.org/2000/svg">
<path d="M7 0.5H38.2931V29.5H7C3.41015 29.5 0.5 26.5899 0.5 23V7C0.5 3.41015 3.41015 0.5 7 0.5Z" stroke="white"/>
<path fill-rule="evenodd" clip-rule="evenodd" d="M67.9999 30C71.8659 30 74.9999 26.866 74.9999 23L74.9999 7C74.9999 3.13401 71.8659 0 67.9999 0H38.793L38.793 30L67.9999 30ZM54.3697 9.37202V6.87515V6.8736C54.3697 4.32393 57.4209 4.61585 57.4209 6.31925V9.37047H62.969C65.5187 9.37047 65.2267 12.4217 63.5233 12.4217H62.5529C62.5218 13.813 61.6585 16.0179 61.1678 17.0008C60.8091 17.7182 59.9038 19.1297 59.3293 19.7399C59.2364 19.8383 59.1584 19.9134 59.0878 19.9814C58.9399 20.1238 58.8238 20.2355 58.6694 20.4666C59.5776 20.9028 60.574 21.0366 61.8038 21.2017C61.8482 21.2077 61.8929 21.2137 61.938 21.2197C62.1042 21.2422 62.257 21.2574 62.3993 21.2717C62.8471 21.3163 63.1918 21.3508 63.5311 21.5676C64.2174 22.0039 64.5109 23.0893 63.733 23.8657C62.6895 24.9076 59.1476 23.8439 57.9551 23.3998C57.8368 23.3559 57.7336 23.3193 57.6387 23.2856C57.3647 23.1883 57.1603 23.1158 56.865 22.9635C56.3562 22.7024 56.1411 22.5866 55.931 22.5952C55.6039 22.6085 55.289 22.9233 53.8961 23.4604C52.8418 23.8672 50.039 24.507 49.0359 24.2849C48.3651 24.1359 47.7129 23.5551 47.7129 22.8238C47.7129 21.3876 48.9335 21.2957 49.7572 21.2337C49.8882 21.2238 50.0091 21.2147 50.1135 21.2011C51.749 20.9856 52.0194 20.8774 52.3506 20.7448C52.542 20.6681 52.7537 20.5834 53.261 20.4651C53.0947 20.216 52.9209 20.05 52.7372 19.8744C52.607 19.7501 52.4719 19.621 52.3309 19.4542C51.7129 18.7244 50.3496 16.8192 50.3496 15.889C50.3496 15.2322 51.0266 14.5024 51.7362 14.5024C52.8418 14.5024 53.1327 15.0633 53.5309 15.8313C53.6657 16.0912 53.8128 16.3749 54.0079 16.6685C54.2223 16.9925 54.3902 17.1889 54.5647 17.3931C54.677 17.5245 54.7921 17.6592 54.924 17.8331C55.2891 18.3133 55.4198 18.3991 55.8066 18.6529C55.8739 18.6971 55.9489 18.7463 56.0343 18.8036C56.3456 18.3381 56.6625 18.0132 56.9818 17.6858C57.8234 16.8227 58.6821 15.9422 59.5016 12.4232L48.8139 12.431C46.7875 12.4279 46.5064 10.4419 47.7331 9.67015C48.4043 9.2486 51.405 9.31363 53.2747 9.35415C53.7191 9.36377 54.0996 9.37202 54.3697 9.37202Z" fill="white"/>
<path fill-rule="evenodd" clip-rule="evenodd" d="M18.6387 6.36339C18.6387 7.67493 19.7375 9.01136 20.3977 10.2453L21.2275 11.6782C21.5403 12.2503 21.5945 12.1871 21.5945 12.7227C21.5945 13.0282 21.4314 13.2627 21.2691 13.4229C20.6275 14.0564 19.0608 13.5234 19.0608 14.3555C19.0608 15.1724 19.8041 16.4417 18.7103 17.0066L16.7806 17.75C16.8782 17.8856 17.5792 18.2912 17.7685 18.4205C17.891 18.5041 17.9991 18.5511 18.101 18.6409C18.7564 19.2182 18.5951 19.9179 18.1074 20.5611C17.7124 21.082 18.0417 21.2748 17.8426 21.9673C17.4089 23.4753 15.8296 23.25 14.6694 23.25C14.2273 23.25 12.7512 23.1802 12.4781 23.2977C12.2196 23.4089 12.1072 23.6323 11.9911 23.9193C11.8816 24.1902 11.228 25.709 11.0882 25.8364C10.9775 25.9374 10.8423 25.9895 10.7055 26H10.5998C10.3654 25.9818 10.1439 25.8453 10.0529 25.6261C9.93833 25.3507 10.0302 25.1385 10.1367 24.9111C10.4744 24.1902 10.8651 23.0084 11.3853 22.4863C12.0906 21.7786 12.9776 21.9179 13.9516 21.9179C14.1771 21.9179 14.4031 21.9161 14.6286 21.9165C15.1692 21.9173 15.1415 22.0081 15.9429 21.9248C16.4616 21.871 16.6204 21.9425 16.6119 21.1875C16.602 20.3239 16.8319 20.1615 17.203 19.5976C16.9619 19.4678 15.5971 18.5989 15.4602 18.4492C15.1794 18.1423 15.1007 17.6865 15.2725 17.2894L15.4954 16.9576C15.7753 16.6728 16.7108 16.3829 17.1309 16.2155C17.3117 16.1435 17.8453 15.9158 18.0053 15.9023C17.9316 15.0009 17.2744 13.9002 18.4625 12.93C18.8207 12.6374 19.7529 12.4739 20.1588 12.4648C20.1236 12.3107 18.4107 9.39205 18.2188 9.06785C17.2463 7.42452 17.2407 6.63155 17.5221 4.79744C17.5808 4.41474 17.6723 4 18.2164 4C18.7249 4 18.8886 4.42445 18.8154 4.90975C18.7507 5.339 18.6387 5.92499 18.6387 6.36328V6.36339ZM23.6214 18.1797C23.6214 19.1206 23.4387 19.5697 22.9102 20.2489C22.5376 20.7277 21.7212 20.6653 21.7212 19.8125C21.7212 19.4393 22.6673 18.8964 22.2407 17.78C22.0583 17.3026 21.4381 16.9089 21.8161 16.3858C22.0012 16.1296 22.1941 16.1173 22.4391 16.1173C22.9718 16.1173 23.6214 17.4117 23.6214 18.1798V18.1797ZM24.086 21.9609C24.086 21.447 24.3132 21.4147 24.5508 21.102C24.6438 20.9795 24.7166 20.894 24.8045 20.7586C25.4648 19.7415 25.7085 18.399 25.3775 17.2092C24.8686 15.38 24.086 15.478 24.086 14.6992C24.086 14.4328 24.7255 13.2157 25.9843 15.3457C26.4993 16.2171 26.7996 17.282 26.8287 18.3111C26.8334 18.4751 26.7913 18.5224 26.7883 18.7381C26.7831 19.107 26.6787 19.6321 26.5829 19.9472C26.2757 20.9572 25.8653 21.6214 25.1745 22.3382C24.7137 22.8165 24.086 22.3803 24.086 21.9611V21.9609ZM26.4507 23.8085C26.4507 23.4446 26.9213 23.1003 27.2169 22.6976C27.4705 22.3521 27.7657 21.909 27.9578 21.5179C29.1724 19.046 28.854 16.1924 27.2349 13.9871C26.9219 13.5608 26.4507 13.1996 26.4507 12.8515C26.4507 12.5042 26.7188 12.2173 27.0561 12.1807C27.5176 12.1305 28.1348 12.993 28.3928 13.3674C28.48 13.4939 28.5723 13.611 28.6551 13.745C29.2871 14.766 29.9248 16.3853 29.9567 17.6627L29.9993 18.3098C30.0126 18.8705 29.834 20.0442 29.6749 20.6011C29.3526 21.7296 28.8599 22.7159 28.1531 23.6072C27.8446 23.9963 27.4869 24.4969 27.0889 24.4822C26.7554 24.4698 26.4507 24.1773 26.4507 23.8085Z" fill="white"/>
</svg>
