<svg width="41" height="42" viewBox="0 0 41 42" fill="none" xmlns="http://www.w3.org/2000/svg">
<path fill-rule="evenodd" clip-rule="evenodd" d="M9.25 0.500977C8.2835 0.500977 7.5 1.28448 7.5 2.25098C7.5 3.21747 8.2835 4.00098 9.25 4.00098H33.75C35.683 4.00098 37.25 5.56798 37.25 7.50098V34.626C37.25 36.559 35.683 38.126 33.75 38.126H9.25C8.2835 38.126 7.5 38.9095 7.5 39.876C7.5 40.8425 8.2835 41.626 9.25 41.626H33.75C37.616 41.626 40.75 38.492 40.75 34.626V7.50098C40.75 3.63498 37.616 0.500977 33.75 0.500977H9.25ZM18.5107 15.0135C19.1941 14.3301 20.3022 14.3301 20.9856 15.0135C21.6888 15.7168 23.9542 17.3836 25.7729 18.6781C27.7008 20.0503 27.7679 22.9237 25.8516 24.3609L20.7982 28.151C20.025 28.7309 18.928 28.5742 18.3482 27.801C17.7683 27.0278 17.925 25.9309 18.6982 25.351L21.4982 23.251L2.24805 23.251C1.28155 23.251 0.498047 22.4675 0.498047 21.501C0.498047 20.5345 1.28155 19.751 2.24805 19.751L21.2958 19.751C20.1496 18.8953 19.0644 18.0421 18.5107 17.4884C17.8273 16.805 17.8273 15.697 18.5107 15.0135Z" fill="white"/>
</svg>
