<svg width="42" height="49" viewBox="0 0 42 49" fill="none" xmlns="http://www.w3.org/2000/svg">
<path fill-rule="evenodd" clip-rule="evenodd" d="M23.2502 3.5C24.2167 3.5 25.0002 2.7165 25.0002 1.75C25.0002 0.783502 24.2167 0 23.2502 0H18.5835C17.617 0 16.8335 0.783502 16.8335 1.75C16.8335 2.7165 17.617 3.5 18.5835 3.5L23.2502 3.5ZM20.918 7C12.2195 7 5.16797 14.0515 5.16797 22.75V37.3333L5.16797 37.335H2.25C1.2835 37.335 0.5 38.1185 0.5 39.085C0.5 40.0515 1.2835 40.835 2.25 40.835L39.5833 40.835C40.5498 40.835 41.3333 40.0515 41.3333 39.085C41.3333 38.1185 40.5498 37.335 39.5833 37.335H36.668V37.3333V22.75C36.668 14.0515 29.6165 7 20.918 7ZM8.66797 22.75C8.66797 15.9845 14.1525 10.5 20.918 10.5C27.6835 10.5 33.168 15.9845 33.168 22.75V37.3333H8.66797V22.75ZM25.5833 43.7493C25.5833 44.3622 25.4626 44.969 25.2281 45.5352C24.9936 46.1014 24.6498 46.6158 24.2165 47.0492C23.7832 47.4825 23.2687 47.8263 22.7025 48.0608C22.1363 48.2953 21.5295 48.416 20.9167 48.416C20.3038 48.416 19.697 48.2953 19.1308 48.0608C18.5646 47.8263 18.0502 47.4825 17.6168 47.0492C17.1835 46.6158 16.8398 46.1014 16.6052 45.5352C16.3707 44.969 16.25 44.3622 16.25 43.7493H20.9167H25.5833Z" fill="white"/>
</svg>
