<svg width="75" height="30" viewBox="0 0 75 30" fill="none" xmlns="http://www.w3.org/2000/svg">
<path d="M7 0.5H38.2931V29.5H7C3.41015 29.5 0.5 26.5899 0.5 23V7C0.5 3.41015 3.41015 0.5 7 0.5Z" stroke="white"/>
<path fill-rule="evenodd" clip-rule="evenodd" d="M67.9999 30C71.8659 30 74.9999 26.866 74.9999 23L74.9999 7C74.9999 3.13401 71.8659 0 67.9999 0H38.793L38.793 30L67.9999 30ZM54.3697 9.37202V6.87515V6.8736C54.3697 4.32393 57.4209 4.61585 57.4209 6.31925V9.37047H62.969C65.5187 9.37047 65.2267 12.4217 63.5233 12.4217H62.5529C62.5218 13.813 61.6585 16.0179 61.1678 17.0008C60.8091 17.7182 59.9038 19.1297 59.3293 19.7399C59.2364 19.8383 59.1584 19.9134 59.0878 19.9814C58.9399 20.1238 58.8238 20.2355 58.6694 20.4666C59.5776 20.9028 60.574 21.0366 61.8038 21.2017C61.8482 21.2077 61.8929 21.2137 61.938 21.2197C62.1042 21.2422 62.257 21.2574 62.3993 21.2717C62.8471 21.3163 63.1918 21.3508 63.5311 21.5676C64.2174 22.0039 64.5109 23.0893 63.733 23.8657C62.6895 24.9076 59.1476 23.8439 57.9551 23.3998C57.8368 23.3559 57.7336 23.3193 57.6387 23.2856C57.3647 23.1883 57.1603 23.1158 56.865 22.9635C56.3562 22.7024 56.1411 22.5866 55.931 22.5952C55.6039 22.6085 55.289 22.9233 53.8961 23.4604C52.8418 23.8672 50.039 24.507 49.0359 24.2849C48.3651 24.1359 47.7129 23.5551 47.7129 22.8238C47.7129 21.3876 48.9335 21.2957 49.7572 21.2337C49.8882 21.2238 50.0091 21.2147 50.1135 21.2011C51.749 20.9856 52.0194 20.8774 52.3506 20.7448C52.542 20.6681 52.7537 20.5834 53.261 20.4651C53.0947 20.216 52.9209 20.05 52.7372 19.8744C52.607 19.7501 52.4719 19.621 52.3309 19.4542C51.7129 18.7244 50.3496 16.8192 50.3496 15.889C50.3496 15.2322 51.0266 14.5024 51.7362 14.5024C52.8418 14.5024 53.1327 15.0633 53.5309 15.8313C53.6657 16.0912 53.8128 16.3749 54.0079 16.6685C54.2223 16.9925 54.3902 17.1889 54.5647 17.3931C54.677 17.5245 54.7921 17.6592 54.924 17.8331C55.2891 18.3133 55.4198 18.3991 55.8066 18.6529C55.8739 18.6971 55.9489 18.7463 56.0343 18.8036C56.3456 18.3381 56.6625 18.0132 56.9818 17.6858C57.8234 16.8227 58.6821 15.9422 59.5016 12.4232L48.8139 12.431C46.7875 12.4279 46.5064 10.4419 47.7331 9.67015C48.4043 9.2486 51.405 9.31363 53.2747 9.35415C53.7191 9.36377 54.0996 9.37202 54.3697 9.37202Z" fill="white"/>
<path fill-rule="evenodd" clip-rule="evenodd" d="M13.1509 24.0446C12.8114 24.8271 11.8578 25.2051 11.0213 24.8875C10.1849 24.57 9.78078 23.6779 10.1202 22.8955L17.4847 5.95539C17.8241 5.17293 18.7778 4.79493 19.6142 5.11245C20.0405 5.27499 20.3557 5.58495 20.5153 5.95539L24.7178 15.619C24.7683 15.7078 24.8108 15.8023 24.8411 15.9025L27.8798 22.8936C28.2192 23.6761 27.8151 24.5681 26.9787 24.8857C26.1422 25.2032 25.1886 24.8252 24.8491 24.0427L22.16 17.8586H15.84L13.1509 24.0427V24.0446ZM20.8325 14.8082L18.998 10.5897L17.1634 14.8063H20.8305L20.8325 14.8082Z" fill="white"/>
</svg>
