<svg width="13" height="9" viewBox="0 0 13 9" fill="none" xmlns="http://www.w3.org/2000/svg">
<path fill-rule="evenodd" clip-rule="evenodd" d="M0.9 0.9H11.6526V8.1H0.9V0.9ZM0 9V0H12.5526V9H0ZM2.14198 3.2226L2.14198 2.1426H3.22198V1.4226L1.42198 1.4226L1.42198 3.2226H2.14198ZM10.5523 4.87194V3.79194H11.2723V5.59194H9.47231V4.87194H10.5523ZM1.42208 6.16093H2.26419V7.58198H1.42208V6.16093ZM3.20909 6.16093H4.05119V7.58198H3.20909V6.16093ZM5.84365 6.16093H5.00154V7.58198H5.84365V6.16093ZM6.78855 6.16093H7.63065V7.58198H6.78855V6.16093ZM9.42311 6.16093H8.581V7.58198H9.42311V6.16093ZM10.368 6.16093H11.2101V7.58198H10.368V6.16093Z" fill="white"/>
</svg>
