<svg width="36" height="28" viewBox="0 0 36 28" fill="none" xmlns="http://www.w3.org/2000/svg">
<path fill-rule="evenodd" clip-rule="evenodd" d="M33.7742 2.55176L10.3285 2.55176L2.22118 14.0518L10.3285 25.5518L33.7741 25.5518L33.7742 2.55176ZM10.3285 0.551758C9.67819 0.551758 9.06852 0.867899 8.69384 1.39937L0.586554 12.8994C0.0993938 13.5904 0.0993929 14.5131 0.586553 15.2041L8.69383 26.7041C9.06852 27.2356 9.67819 27.5518 10.3285 27.5518L33.7741 27.5518C34.8787 27.5518 35.7741 26.6563 35.7741 25.5518L35.7741 2.55176C35.7741 1.44719 34.8787 0.55176 33.7741 0.551758L10.3285 0.551758ZM16.0181 8.89446C16.4087 8.50393 17.0418 8.50393 17.4323 8.89446L21.6753 13.1374L25.9175 8.8952C26.308 8.50468 26.9412 8.50468 27.3317 8.8952C27.7222 9.28572 27.7222 9.91889 27.3317 10.3094L23.0895 14.5516L27.3318 18.7939C27.7224 19.1845 27.7224 19.8176 27.3318 20.2082C26.9413 20.5987 26.3082 20.5987 25.9176 20.2082L21.6753 15.9658L17.4322 20.2089C17.0417 20.5994 16.4085 20.5994 16.018 20.2089C15.6275 19.8184 15.6275 19.1852 16.018 18.7947L20.2611 14.5516L16.0181 10.3087C15.6276 9.91814 15.6276 9.28498 16.0181 8.89446Z" fill="white"/>
</svg>
