<svg width="28" height="28" viewBox="0 0 28 28" fill="none" xmlns="http://www.w3.org/2000/svg">
<path fill-rule="evenodd" clip-rule="evenodd" d="M14 26C14.1521 26 14.4643 25.9366 14.9306 25.4763C15.4055 25.0076 15.925 24.2302 16.4044 23.1117C16.8918 21.9744 17.297 20.5796 17.5772 19H10.4228C10.703 20.5796 11.1082 21.9744 11.5956 23.1117C12.075 24.2302 12.5945 25.0076 13.0694 25.4763C13.5357 25.9366 13.8479 26 14 26ZM10.1474 17C10.0516 16.044 10 15.0398 10 14C10 12.9602 10.0516 11.956 10.1474 11H17.8526C17.9484 11.956 18 12.9602 18 14C18 15.0398 17.9484 16.044 17.8526 17H10.1474ZM19.606 19C19.1718 21.6492 18.4025 23.9119 17.4192 25.5059C20.7532 24.5166 23.481 22.1177 24.9119 19H19.606ZM25.6219 17H19.8619C19.9524 16.0335 20 15.0297 20 14C20 12.9703 19.9524 11.9665 19.8619 11H25.6219C25.8687 11.9589 26 12.9641 26 14C26 15.0359 25.8687 16.0411 25.6219 17ZM8.13808 17H2.37805C2.13126 16.0411 2 15.0359 2 14C2 12.9641 2.13126 11.9589 2.37805 11H8.13808C8.04765 11.9665 8 12.9703 8 14C8 15.0297 8.04765 16.0335 8.13808 17ZM3.08808 19H8.39397C8.82822 21.6492 9.59747 23.9119 10.5808 25.5059C7.24683 24.5166 4.51902 22.1177 3.08808 19ZM10.4228 9H17.5772C17.297 7.42043 16.8918 6.02562 16.4044 4.88834C15.925 3.76981 15.4055 2.9924 14.9306 2.52368C14.4643 2.06345 14.1521 2 14 2C13.8479 2 13.5357 2.06345 13.0694 2.52368C12.5945 2.9924 12.075 3.76981 11.5956 4.88834C11.1082 6.02562 10.703 7.42043 10.4228 9ZM19.606 9H24.9119C23.481 5.88226 20.7532 3.4834 17.4192 2.49415C18.4025 4.08811 19.1718 6.35077 19.606 9ZM10.5808 2.49415C9.59747 4.08811 8.82822 6.35077 8.39397 9H3.08808C4.51902 5.88226 7.24683 3.48341 10.5808 2.49415ZM14 0C21.732 0 28 6.26801 28 14C28 21.732 21.732 28 14 28C6.26801 28 0 21.732 0 14C0 6.26801 6.26801 0 14 0Z" fill="white"/>
</svg>
