<svg width="81" height="23" viewBox="0 0 81 23" fill="none" xmlns="http://www.w3.org/2000/svg">
<path d="M11.9556 22.3561C11.4102 22.3524 10.8715 22.2708 10.3509 22.1112C9.78157 21.9368 9.23112 21.704 8.7063 21.4183C7.99114 21.0515 7.30665 20.6241 6.66251 20.1417C6.08138 19.6879 5.53388 19.1938 5.02167 18.6627C4.3271 17.9677 3.67875 17.2588 3.14553 16.605C2.55642 15.9121 2.04757 15.1524 1.62865 14.3419L1.59167 14.2692V14.2671L1.58411 14.249V14.2406L1.54335 14.1536L1.54125 14.1473L1.53704 14.1414L1.49881 14.0562L1.49461 14.0461V14.0419L1.46393 13.9793L1.45637 13.9591L1.45007 13.9431L1.44418 13.9305V13.9284L1.41393 13.8616L1.41183 13.8536L1.40342 13.8452L1.36729 13.7624L1.36099 13.7503L1.32653 13.6654L1.32443 13.6612L1.32233 13.6549L1.25342 13.4826V13.4805L1.24964 13.4708L1.21938 13.3914L1.21728 13.3838L1.21308 13.3754C1.20468 13.3511 1.19501 13.3246 1.18661 13.3002V13.2948L1.1803 13.2801C1.17022 13.2502 1.16224 13.2275 1.15425 13.2053V13.2011L1.14795 13.183L1.11728 13.1057L1.11139 13.0834L1.08702 13.0128L1.08282 13.0002L1.08072 12.9906C1.07064 12.9641 1.06475 12.9397 1.05845 12.9195L1.05005 12.8973L1.03198 12.8347L1.02778 12.8229V12.8208L1.02441 12.8061L1.00593 12.7435L1.00214 12.7338L1.00004 12.717C0.99164 12.6931 0.985337 12.6729 0.981976 12.6523L0.973572 12.6283C0.96937 12.6078 0.963067 12.5859 0.957605 12.5615L0.951302 12.5393V12.533C0.94752 12.517 0.941217 12.4947 0.935335 12.4704L0.926931 12.4397C0.922729 12.4195 0.918527 12.3993 0.913065 12.375L0.910964 12.3611L0.906762 12.3451C0.90256 12.325 0.898358 12.3044 0.892896 12.2842L0.888694 12.2535C0.886593 12.2397 0.882811 12.225 0.88029 12.209V12.193L0.874828 12.1624V12.1582L0.866424 12.1115C0.862642 12.0977 0.860541 12.0838 0.85802 12.0691L0.850036 12.0229C0.847935 12.0082 0.845835 11.9943 0.843734 11.9838C0.841633 11.972 0.839532 11.9493 0.83533 11.9313L0.831548 11.8985C0.829867 11.8783 0.825665 11.8602 0.823565 11.8401L0.815161 11.8094V11.8035C0.811379 11.7812 0.811379 11.7632 0.807597 11.7443C0.807597 11.7346 0.805496 11.7241 0.803816 11.714V11.7098C0.801295 11.6917 0.799614 11.6712 0.797513 11.6535C0.797513 11.6409 0.795412 11.6312 0.795412 11.6186V11.6165C0.793311 11.6006 0.79121 11.5842 0.79121 11.5682C0.79121 11.5535 0.787428 11.5396 0.787428 11.5258C0.787428 11.5111 0.785327 11.4972 0.783647 11.4833C0.783647 11.4665 0.781546 11.4506 0.781546 11.435C0.781546 11.4186 0.781546 11.4085 0.779445 11.3964C0.777344 11.3838 0.779445 11.3636 0.777344 11.3472V11.3455C0.777344 11.3316 0.777344 11.319 0.777344 11.3052C0.777344 11.2905 0.777344 11.2825 0.777344 11.2724V11.2585C0.777344 11.2426 0.777344 11.2279 0.777344 11.214C0.777344 11.198 0.777344 11.1896 0.777344 11.1779V11.0867C0.777344 11.0686 0.777344 11.0505 0.777344 11.03C0.777344 11.0178 0.777344 11.0035 0.777344 10.9913C0.777344 10.9795 0.777344 10.9589 0.777344 10.943C0.777344 10.9325 0.777344 10.9245 0.777344 10.9144V10.9001C0.777344 10.8795 0.777344 10.8615 0.779445 10.8434C0.779445 10.8337 0.779445 10.8232 0.779445 10.811C0.779445 10.7942 0.781546 10.7762 0.783647 10.7539C0.783647 10.7442 0.783647 10.7337 0.785748 10.7241C0.785748 10.7039 0.789529 10.685 0.79163 10.6648V10.6325C0.79163 10.6123 0.793731 10.5942 0.795832 10.574L0.800034 10.5434V10.5371C0.800034 10.519 0.804236 10.5009 0.806337 10.4787C0.806337 10.4703 0.806337 10.4648 0.810118 10.4564V10.4446C0.812219 10.4245 0.81432 10.4035 0.818522 10.3854L0.822304 10.3572C0.824405 10.3371 0.828607 10.3148 0.830708 10.2946L0.834069 10.2724V10.2682C0.838271 10.248 0.840372 10.2274 0.844574 10.2034L0.850877 10.1749C0.854658 10.1526 0.85886 10.1303 0.863062 10.1081L0.866844 10.09V10.0799C0.871046 10.0576 0.875248 10.0333 0.879029 10.011L0.883231 9.99083V9.98872C0.889114 9.96645 0.893736 9.94208 0.899198 9.91981V9.91141L0.901299 9.89754C0.905501 9.87527 0.911804 9.853 0.918107 9.82653L0.92399 9.80636C0.928191 9.78409 0.934494 9.7593 0.942058 9.73157L0.944159 9.71938L0.94626 9.7114C0.954663 9.68493 0.960966 9.65846 0.96895 9.62988L0.973152 9.61392C0.981555 9.58534 0.987018 9.56139 0.995422 9.53702L0.999624 9.51853C1.00593 9.49626 1.01391 9.46811 1.02189 9.44164V9.43744L1.0261 9.42357C1.03576 9.3971 1.04416 9.36853 1.05215 9.34457L1.05635 9.33029C1.06475 9.30382 1.07442 9.27566 1.0845 9.24079L1.0866 9.23533V9.23323C1.09627 9.20255 1.10677 9.17272 1.11644 9.14373L1.12064 9.13154C1.13114 9.10381 1.14081 9.07523 1.15131 9.04834L1.15551 9.03658C1.16728 9.0017 1.17778 8.97565 1.18787 8.94918L1.19165 8.93867C1.20173 8.91094 1.21392 8.88027 1.22569 8.84959L1.22779 8.84371C1.23997 8.81304 1.25216 8.7832 1.26602 8.74623L1.2698 8.73992C1.28241 8.70757 1.29418 8.67732 1.30846 8.64916L1.31266 8.63908C1.32527 8.61051 1.33704 8.58277 1.3509 8.5479L1.3572 8.53781C1.36729 8.51134 1.38157 8.48109 1.39754 8.44453L1.40174 8.43655C1.41771 8.39789 1.43452 8.36554 1.44628 8.33738C2.25683 6.59528 3.46949 5.38178 4.64266 4.20903L4.66703 4.18466C5.34942 3.50227 5.98768 2.91863 6.61586 2.40222C7.33313 1.80639 8.09871 1.26771 8.90505 0.795837C9.35297 0.528597 9.83283 0.321864 10.3333 0.180261C10.7623 0.0605072 11.206 0 11.6497 0C12.2493 0.0037817 12.8431 0.105047 13.4099 0.299595C13.9528 0.484057 14.4776 0.716842 14.978 0.994587C15.7785 1.42402 16.5458 1.91228 17.2752 2.45474C17.9622 2.96569 18.6106 3.52664 19.2161 4.13003C19.8476 4.76998 20.4254 5.45867 20.9439 6.194C21.4296 6.84823 21.8313 7.56171 22.1372 8.31721C22.3351 8.84623 22.5053 9.38701 22.6435 9.93368C22.765 10.4098 22.8339 10.8984 22.8482 11.3884C22.8557 11.8686 22.799 12.3485 22.6738 12.8145C22.5276 13.3452 22.3192 13.8599 22.0536 14.3419C21.675 15.0507 21.2334 15.7251 20.7313 16.3533C20.2329 16.9714 19.6976 17.5584 19.1312 18.1139C18.519 18.7253 17.8727 19.3051 17.1983 19.8476C16.4916 20.417 15.7499 20.9414 14.978 21.4179C14.0805 22.0112 13.0309 22.336 11.9556 22.3561ZM7.00664 18.9854C7.05328 19.0182 7.1016 19.0501 7.15034 19.0829C7.09782 19.0467 7.05118 19.0161 7.00664 18.9854ZM6.15786 9.78493L6.13139 9.83998V9.84586L6.10912 9.8967L6.10702 9.90301L6.08475 9.95301V9.95721L6.06248 10.0102V10.0123L6.04231 10.0669V10.069L6.02214 10.1177V10.1257L6.00407 10.1723L6.00197 10.1786L5.986 10.2253V10.2316C5.9797 10.2476 5.9755 10.2639 5.97004 10.2799V10.2841C5.96373 10.3043 5.95743 10.319 5.95365 10.3329L5.95197 10.3413L5.93726 10.3854L5.93516 10.3959C5.9318 10.4098 5.9276 10.4245 5.92339 10.4383V10.4488L5.91121 10.4913L5.89104 10.503L5.88894 10.5135L5.87885 10.5476L5.87675 10.5577C5.87255 10.5719 5.86835 10.5862 5.86625 10.6005L5.86247 10.6106L5.85238 10.6614L5.84818 10.6753L5.8444 10.6997V10.7114L5.83599 10.7442V10.7505L5.82969 10.7707L5.82339 10.7967L5.82171 10.8089V10.8232C5.81961 10.8354 5.81751 10.8476 5.81541 10.8598L5.8133 10.8736L5.8091 10.9081L5.8049 10.9241C5.8049 10.9346 5.8028 10.9463 5.80112 10.9589V10.9749C5.80112 10.9871 5.79902 10.9972 5.79692 11.0098V11.04C5.79692 11.0484 5.79692 11.0539 5.79482 11.0623V11.0909C5.79482 11.0972 5.79482 11.1052 5.79482 11.1131C5.79482 11.119 5.79482 11.1228 5.79482 11.1291C5.79482 11.1354 5.79482 11.1493 5.79272 11.1598C5.79272 11.1636 5.79272 11.1678 5.79272 11.172V11.1804C5.79272 11.1879 5.79272 11.1984 5.79272 11.2102C5.79272 11.2207 5.79272 11.2249 5.79272 11.2325C5.79272 11.2409 5.79272 11.2493 5.79272 11.2569V11.2833C5.79272 11.2917 5.79272 11.3014 5.79272 11.3119V11.3825C5.79272 11.3909 5.79272 11.3993 5.79272 11.4069C5.79272 11.4148 5.79272 11.4249 5.79272 11.4333V11.4556C5.79272 11.4657 5.79272 11.4737 5.79272 11.4842V11.5064C5.79272 11.5119 5.79272 11.5182 5.79272 11.5245V11.559C5.79272 11.5649 5.79272 11.5728 5.79272 11.5812V11.6279C5.79272 11.6384 5.79482 11.648 5.79692 11.6586C5.79692 11.6619 5.79692 11.6661 5.79692 11.6703V11.6787C5.79692 11.6888 5.79902 11.6989 5.80112 11.7111V11.7291L5.8028 11.746L5.8049 11.7598L5.807 11.78V11.7884L5.8091 11.8065V11.8266L5.8133 11.8405V11.8628L5.81541 11.875L5.81961 11.901V11.9094L5.82339 11.9233V11.9317L5.82759 11.9518L5.82969 11.9657C5.83179 11.9783 5.83389 11.9901 5.83768 12.0006L5.8402 12.0166L5.84566 12.0409L5.84776 12.0531V12.0678L5.85616 12.1023L5.86037 12.1182C5.86457 12.1329 5.86835 12.1447 5.87003 12.1552L5.87423 12.1691L5.88474 12.2052L5.88684 12.2115V12.2199C5.89062 12.2296 5.89482 12.2422 5.89692 12.2544L5.90112 12.2682L5.91499 12.3107V12.317L5.9276 12.3552V12.3678L5.93348 12.3859L5.93978 12.4061L5.94188 12.4145V12.4178L5.95239 12.4485L5.95617 12.4569L5.96037 12.4687V12.475L5.97256 12.509L5.97634 12.5195L5.99104 12.562L5.99525 12.5678V12.572L6.01121 12.6166L6.01331 12.6229L6.03138 12.6674L6.03348 12.6737L6.04987 12.712L6.05197 12.72V12.7263C6.05827 12.7401 6.06416 12.7565 6.07214 12.7729L6.07424 12.7771L6.09231 12.8237L6.09609 12.8296L6.11038 12.8645L6.11458 12.8742L6.11878 12.8826L6.14105 12.9296V12.9334L6.14315 12.9372L6.16332 12.9859V12.9922L6.17131 13.004L6.18811 13.041V13.0431L6.19568 13.0616L6.21248 13.0956C6.72049 13.983 7.35498 14.7915 8.09367 15.4961C8.68109 16.1222 9.37608 16.6407 10.1421 17.0252C10.6909 17.3475 11.3111 17.5256 11.9468 17.5458C12.5447 17.5357 13.1275 17.3555 13.6259 17.0252C14.4629 16.5046 15.2365 15.889 15.9335 15.1902C16.5798 14.5805 17.1265 13.8738 17.5563 13.0956C18.1942 11.9023 18.0727 11.0337 17.6025 9.75132C17.2218 8.89455 16.6853 8.11678 16.0209 7.45835C15.326 6.76546 14.5318 6.17803 13.6671 5.71625C13.1061 5.38178 12.4716 5.19143 11.8195 5.16286C11.2846 5.16916 10.7602 5.31917 10.3043 5.59859C9.43911 6.11921 8.64748 6.75327 7.95038 7.48062L7.93652 7.49448C7.21085 8.14494 6.60704 8.9206 6.16164 9.78787H6.15996L6.15786 9.78493ZM17.7794 16.5164C17.6677 16.6336 17.5467 16.7554 17.4189 16.8853C17.2693 17.0353 17.1151 17.1828 16.9592 17.3307C17.1151 17.1828 17.2714 17.0353 17.4189 16.8853C17.5488 16.7554 17.6677 16.6336 17.7794 16.5164ZM20.0543 13.433C20.0258 13.4881 19.9976 13.5406 19.969 13.5952C19.9972 13.5406 20.0258 13.486 20.0543 13.433ZM20.3115 9.12902C20.4514 9.56265 20.5548 10.006 20.6195 10.4577C20.5548 10.006 20.4531 9.56055 20.3115 9.12692V9.12902ZM16.8983 4.12289C17.1029 4.30777 17.3013 4.49602 17.4937 4.68846C18.045 5.24521 18.5496 5.84692 19.003 6.48729C19.1993 6.76672 19.3753 7.03816 19.5295 7.29952C18.9585 6.34989 18.2761 5.47254 17.4937 4.68846C17.3013 4.49392 17.1029 4.30777 16.8983 4.12289ZM13.3515 1.72277C13.4935 1.79168 13.6393 1.8669 13.7969 1.9522C14.2343 2.18498 14.6637 2.44214 15.073 2.71316C14.6637 2.44214 14.2343 2.18666 13.7969 1.9522C13.6393 1.869 13.4935 1.78958 13.3515 1.72277ZM6.41964 12.4405C6.34652 12.2682 6.28392 12.0939 6.23349 11.914C6.17046 11.693 6.13601 11.464 6.12761 11.2333C6.14988 11.6506 6.24736 12.0577 6.41922 12.4384L6.41964 12.4405Z" fill="#53B7D1"/>
<path d="M35.6335 16.2374C36.1361 16.2374 36.5995 16.2273 37.0235 16.2067C37.4487 16.1866 37.8845 16.1441 38.3362 16.0769C38.5059 16.0387 38.6622 16.1819 38.6337 16.3563V17.845C38.6337 18.0173 38.5282 18.1371 38.316 18.2018C37.7975 18.3636 37.2643 18.4749 36.7252 18.54C36.1545 18.6169 35.5768 18.6577 34.9994 18.6594C34.0696 18.6837 33.146 18.5295 32.277 18.2018C31.5703 17.9236 30.9484 17.4686 30.4681 16.8786C29.9816 16.2572 29.6353 15.5336 29.4555 14.7638C29.2324 13.8339 29.1273 12.8797 29.1374 11.9259V11.0119C29.1273 10.056 29.2303 9.10218 29.4471 8.17231C29.6194 7.40252 29.9593 6.68148 30.4396 6.05792C30.9135 5.46797 31.5337 5.01249 32.2363 4.73516C33.1052 4.407 34.0309 4.25279 34.9587 4.27716C36.0386 4.28556 37.1096 4.45994 38.137 4.79357C38.2282 4.81584 38.3114 4.86458 38.3761 4.93349C38.4185 4.9982 38.4387 5.0751 38.4349 5.15241V6.58231C38.4631 6.75459 38.3072 6.90082 38.1374 6.86006C37.7668 6.80921 37.3617 6.76888 36.926 6.7403C36.4882 6.71173 36.0449 6.69997 35.5953 6.70165C35.0499 6.68568 34.5074 6.77434 33.9969 6.9588C33.5754 7.12268 33.2128 7.4063 32.9535 7.77523C32.6678 8.19668 32.4754 8.67275 32.3863 9.17488C32.2649 9.83331 32.2077 10.5018 32.2182 11.1704V11.7863C32.2081 12.457 32.2691 13.1251 32.3968 13.7831C32.4897 14.2835 32.6905 14.7575 32.9821 15.1726C33.2531 15.5353 33.6221 15.8147 34.0452 15.9769C34.5536 16.1609 35.0927 16.2479 35.6335 16.234V16.2374ZM40.9367 4.83643C40.9367 4.62381 41.0359 4.51877 41.2346 4.51877H43.6978C43.8839 4.49229 44.0423 4.65029 44.0154 4.83643V15.1029C43.9932 15.4025 44.0621 15.7 44.2142 15.9597C44.4268 16.1765 44.7285 16.2803 45.0281 16.2374H49.7338C49.9203 16.2109 50.0779 16.3685 50.0523 16.5551V18.0236C50.0523 18.2766 49.9409 18.4085 49.7157 18.4224C48.9863 18.4871 48.1518 18.5442 47.2122 18.5909C46.2718 18.6375 45.2983 18.6594 44.2932 18.6594C43.7608 18.6695 43.2318 18.6169 42.7133 18.5018C42.3305 18.4186 41.9721 18.2446 41.6699 17.9951C41.3989 17.7539 41.2023 17.44 41.1052 17.0917C40.9813 16.6462 40.9249 16.184 40.935 15.7202L40.9367 4.83643ZM54.9807 18.0846C55.0071 18.2812 54.8391 18.4489 54.6424 18.4211H52.2377C52.041 18.4489 51.873 18.2812 51.9015 18.0846V4.87509C51.9015 4.6381 52.0133 4.51877 52.2377 4.51877H54.6424C54.8676 4.51877 54.9807 4.6381 54.9807 4.87509V18.0846ZM64.2744 16.2374C64.7791 16.2374 65.2425 16.2273 65.6661 16.2067C66.0892 16.1866 66.527 16.1441 66.9766 16.0769C67.1468 16.0361 67.3027 16.1819 67.2741 16.3542V17.845C67.2741 18.0173 67.1691 18.1371 66.956 18.2018C66.4375 18.3615 65.9073 18.4749 65.3682 18.54C64.7946 18.6169 64.2173 18.6556 63.6403 18.6594C62.7105 18.6837 61.7865 18.5295 60.9179 18.2018C60.2108 17.9224 59.5889 17.4686 59.1107 16.8786C58.6245 16.2551 58.2783 15.5336 58.0981 14.7638C57.8749 13.8339 57.7699 12.8797 57.78 11.9237V11.0098C57.7695 10.056 57.8733 9.10218 58.0901 8.17189C58.2623 7.4021 58.6023 6.68106 59.0826 6.0554C59.5565 5.46545 60.1763 5.00997 60.8789 4.73432C61.7482 4.40616 62.6735 4.24985 63.6013 4.27632C64.6811 4.28472 65.7547 4.4591 66.7796 4.79273C66.8708 4.815 66.9539 4.86374 67.0187 4.93265C67.0611 4.99736 67.0813 5.07215 67.0779 5.15157V6.58147C67.1061 6.75375 66.9497 6.89998 66.7796 6.85922C66.409 6.80627 66.006 6.76804 65.5682 6.73946C65.1312 6.71089 64.687 6.69912 64.2374 6.70081C63.6924 6.68484 63.1496 6.77182 62.639 6.95796C62.2176 7.12183 61.8571 7.40546 61.5957 7.77229C61.31 8.19416 61.1175 8.67191 61.0289 9.17404C60.9091 9.83247 60.8524 10.501 60.8604 11.1695V11.7855C60.8524 12.4561 60.9112 13.1242 61.0385 13.7801C61.1318 14.2806 61.3322 14.7567 61.626 15.1722C61.8953 15.5349 62.2638 15.8143 62.6878 15.9765C63.1958 16.1605 63.7349 16.2475 64.2757 16.2336L64.2736 16.2357L64.2744 16.2374ZM79.5499 4.51877C79.639 4.50826 79.726 4.5549 79.7689 4.63642C79.8071 4.72298 79.7911 4.82466 79.7285 4.89568L75.4787 11.2115L80.2853 18.0644C80.3382 18.1274 80.3479 18.2165 80.3159 18.2913C80.2777 18.382 80.1844 18.435 80.0874 18.4211H77.2855C77.17 18.427 77.0549 18.4068 76.9494 18.3619C76.8582 18.3094 76.7809 18.2346 76.7305 18.143L72.6588 11.9469V18.0825C72.6874 18.2791 72.5172 18.4489 72.3206 18.4211H69.9159C69.7192 18.4489 69.5511 18.2791 69.5797 18.0825V4.87509C69.5797 4.63642 69.6911 4.51666 69.9159 4.51666H72.3206C72.5458 4.51666 72.6588 4.63642 72.6588 4.87509V10.4762L76.4531 4.75575C76.5565 4.60406 76.7263 4.51456 76.9091 4.51666L79.5499 4.51877Z" fill="white"/>
</svg>
