<svg width="53" height="53" viewBox="0 0 53 53" fill="none" xmlns="http://www.w3.org/2000/svg">
<path fill-rule="evenodd" clip-rule="evenodd" d="M9.08984 18.6426H12.3523V32.3917H9.08984V18.6426V18.6426ZM39.3845 22.6042C39.3845 23.0703 39.3845 29.1292 39.3845 30.2944C39.3845 30.7604 40.3167 30.9935 40.3167 30.2944V23.3033C40.3167 22.8372 40.0836 22.3712 39.6176 22.8372L39.3845 22.6042ZM29.597 20.9729V30.0613C30.0631 30.0613 30.9952 30.0613 30.9952 29.5953V21.439C30.9952 20.9729 30.2961 20.9729 29.83 20.9729C29.83 20.9729 29.597 20.9729 29.597 21.206V20.9729ZM38.6854 31.6926C37.9863 32.6247 39.6176 32.6247 35.4229 32.6247V18.8756H38.9185V21.9051C39.1515 21.9051 39.3845 21.439 39.8506 21.439C40.7827 20.9729 41.7149 20.9729 42.647 21.672C43.1131 21.9051 43.1131 22.6042 43.1131 23.0703V30.7605C43.1131 31.6926 42.647 32.1587 41.9479 32.3917C41.2488 32.6247 40.3167 32.3917 39.6176 32.3917C39.1515 32.1587 38.6854 32.1587 38.2193 31.9256L38.6854 31.6926ZM29.364 32.3917H26.1015V18.6426C27.4997 18.6426 31.6943 18.6426 32.8595 18.8756C33.3256 19.1086 33.7917 19.3417 34.0247 19.5747C34.2577 19.8078 34.4908 20.5069 34.4908 20.9729V29.8283C34.4908 30.2944 34.2577 30.9935 34.0247 31.2265C33.5586 31.6926 33.3256 31.6926 32.8595 31.9256C31.9274 32.3917 30.7622 32.3917 29.364 32.3917V32.3917ZM16.78 25.1676V32.6247H13.7506V18.8756H17.9452L19.1104 25.4006C19.3434 25.4006 19.1104 25.4006 19.1104 24.9346C19.3434 23.5363 19.5765 21.672 19.5765 20.5069L19.8095 19.3417C19.8095 19.1086 19.8095 18.8756 20.0425 18.8756H24.4702V32.6247H21.6738V25.1676C21.6738 25.1676 21.4408 25.6337 21.4408 26.0997L20.2756 32.8578H18.1782C18.1782 32.6247 18.1782 32.1587 17.9452 31.9256C17.9452 31.4596 17.9452 31.2265 17.7122 30.9935L17.0131 27.2649C17.0131 27.0319 17.0131 26.5658 16.78 26.3328C16.78 26.0997 16.547 25.6337 16.547 25.4006C16.547 25.4006 16.547 25.4006 16.547 25.6337V25.4006L16.78 25.1676Z" fill="#FEFEFE"/>
<path d="M11.8848 0H40.5483C43.8108 0 46.6072 1.39822 48.9376 3.49554C51.0349 5.59286 52.4331 8.62233 52.4331 11.8848V40.5483C52.4331 43.8108 51.0349 46.6072 48.9376 48.9376C46.8402 51.0349 43.8108 52.4331 40.5483 52.4331H11.8848C8.62233 52.4331 5.8259 51.0349 3.49554 48.9376C1.39822 46.8402 0 43.8108 0 40.5483V11.8848C0 8.62233 1.39822 5.8259 3.49554 3.49554C5.59286 1.39822 8.62233 0 11.8848 0V0ZM40.5483 2.09732H11.8848C9.32144 2.09732 6.75804 3.2625 5.12679 4.89376C3.49554 6.52501 2.33036 9.0884 2.33036 11.6518V40.3152C2.33036 42.8786 3.49554 45.442 5.12679 47.0733C6.75804 48.7045 9.32144 49.8697 11.8848 49.8697H40.5483C43.1117 49.8697 45.6751 48.7045 47.3063 47.0733C48.9376 45.442 50.1027 42.8786 50.1027 40.3152V11.6518C50.1027 9.0884 48.9376 6.52501 47.3063 4.89376C45.6751 3.2625 43.1117 2.09732 40.5483 2.09732V2.09732Z" fill="#FEFEFE"/>
</svg>
