<svg width="39" height="38" viewBox="0 0 39 38" fill="none" xmlns="http://www.w3.org/2000/svg">
<path fill-rule="evenodd" clip-rule="evenodd" d="M0 0H39V38H0V0ZM6.69231 24.625V24.8125L6.88462 24.625H6.69231ZM6.69231 24.625V13H4V24.625H6.69231ZM27.0769 24.8125V13H30.1538V15.625C30.236 15.625 30.2831 15.625 30.325 15.6104C30.3813 15.5908 30.4283 15.5449 30.5385 15.4375C31.3077 14.875 32.2692 14.6875 33.0385 15.0625C33.6154 15.25 34 15.8125 34 16.5625V23.3125C34 24.0625 33.6154 24.4375 33.0385 24.625H32.2692C31.6923 24.625 31.3077 24.625 30.9231 24.4375C30.8269 24.4375 30.7308 24.3906 30.6346 24.3438C30.5385 24.2969 30.4423 24.25 30.3462 24.25C30.1538 24.0625 29.9615 24.0625 29.7692 24.0625C29.7692 24.1562 29.7212 24.2969 29.6731 24.4375C29.625 24.5781 29.5769 24.7188 29.5769 24.8125H27.0769ZM30.1538 16.5625V22.5625H30.3462C30.3462 22.75 30.3462 23.125 30.5385 23.125C30.7308 23.125 30.9231 23.125 30.9231 22.75V16.5625C30.9231 16.1875 30.1538 16 30.1538 16.5625ZM19 24.625V13H21.5H23.2308H23.6154C24 13 24.3846 13 24.7692 13.1875C25.1538 13.1875 25.5385 13.375 25.7308 13.75C25.9231 14.125 26.1154 14.5 26.1154 15.0625V22.375C26.1154 22.75 25.9231 23.3125 25.7308 23.5C25.5385 23.875 25.1538 24.0625 24.7692 24.25C24 24.625 23.0385 24.625 21.8846 24.625H19ZM21.8846 14.6875V22.375C21.9562 22.375 22.0411 22.3815 22.1319 22.3884C22.5289 22.4188 23.0385 22.4578 23.0385 22V15.0625C23.0385 14.6875 22.2692 14.6875 21.8846 14.6875ZM8.23077 13.1875V13L8.03846 13.1875H8.23077ZM8.23077 24.8125V13.1875H11.6923C11.8846 13.1875 11.8846 13.5625 11.8846 13.75L12.8462 18.625C13.0385 17.875 13.2308 16.375 13.2308 15.8125C13.2308 15.6439 13.2696 15.4754 13.3124 15.2898C13.3648 15.0625 13.4231 14.8097 13.4231 14.5L13.6154 13.1875H17.6538V25H15.1538V18.625C14.9615 18.625 14.9615 19.1875 14.9615 19.375C14.8563 20.1955 14.6936 20.9599 14.5363 21.6989C14.406 22.3109 14.2794 22.9055 14.1923 23.5C14.1923 23.5938 14.1442 23.7344 14.0962 23.875C14.0481 24.0156 14 24.1562 14 24.25L13.8077 25H12.0769C11.8846 25 11.8846 24.8125 11.8846 24.625L10.9231 18.8125V24.8125H8.23077Z" fill="white"/>
</svg>
