<svg width="52" height="52" viewBox="0 0 52 52" fill="none" xmlns="http://www.w3.org/2000/svg">
<path d="M11.7043 0H40.2627C43.5399 0 46.349 1.40451 48.4557 3.51129C50.5625 5.61806 51.967 8.66117 51.967 11.7043V40.2627C51.967 43.5399 50.5625 46.349 48.4557 48.4557C46.349 50.5625 43.3059 51.967 40.2627 51.967H11.7043C8.42709 51.967 5.61806 50.5625 3.51129 48.4557C1.40451 46.349 0 43.3059 0 40.2627V11.7043C0 8.42709 1.40451 5.61806 3.51129 3.51129C5.61806 1.40451 8.66117 0 11.7043 0V0ZM40.2627 2.10677H11.7043C9.12934 2.10677 6.78849 3.2772 4.9158 4.9158C3.2772 6.5544 2.10677 9.12934 2.10677 11.7043V40.2627C2.10677 42.8377 3.2772 45.1785 4.9158 47.0512C6.5544 48.6898 9.12934 49.8603 11.7043 49.8603H40.2627C42.8377 49.8603 45.1785 48.6898 47.0512 47.0512C48.6898 45.4126 49.8603 42.8377 49.8603 40.2627V11.7043C49.8603 9.12934 48.6898 6.78849 47.0512 4.9158C45.4126 3.2772 42.8377 2.10677 40.2627 2.10677Z" fill="#FEFEFE"/>
<path fill-rule="evenodd" clip-rule="evenodd" d="M14.9826 15.2151C21.0689 9.12883 30.6664 9.12883 36.7526 15.2151C42.8388 21.3013 42.8388 30.8988 36.7526 36.985C30.6664 43.0713 21.0689 43.0713 14.9826 36.985C8.89641 30.8988 8.89641 21.3013 14.9826 15.2151ZM24.5802 24.8126C25.2824 24.1103 26.4528 24.1103 27.1551 24.8126C27.8574 25.5148 27.8574 26.6853 27.1551 27.3875C26.4528 28.0898 25.2824 28.0898 24.5802 27.3875C23.8779 26.6853 23.8779 25.5148 24.5802 24.8126ZM16.8553 35.3464C15.2167 33.7078 15.2167 30.8988 16.8553 29.0261C18.4939 27.3875 21.303 27.3875 23.1756 29.0261C24.8142 30.6647 24.8142 33.4737 23.1756 35.3464C21.537 36.985 18.728 36.985 16.8553 35.3464ZM35.114 35.3464C33.4754 36.985 30.6664 36.985 28.7937 35.3464C27.1551 33.7078 27.1551 30.8988 28.7937 29.0261C30.4323 27.3875 33.2413 27.3875 35.114 29.0261C36.7526 30.6647 36.7526 33.4737 35.114 35.3464ZM35.114 17.0877C36.7526 18.7263 36.7526 21.5354 35.114 23.4081C33.4754 25.0467 30.6664 25.0467 28.7937 23.4081C27.1551 21.7695 27.1551 18.9604 28.7937 17.0877C30.4323 15.4491 33.2413 15.4491 35.114 17.0877ZM16.8553 17.0877C18.4939 15.4491 21.303 15.4491 23.1756 17.0877C24.8142 18.7263 24.8142 21.5354 23.1756 23.4081C21.537 25.0467 18.728 25.0467 16.8553 23.4081C15.2167 21.7695 15.2167 18.9604 16.8553 17.0877Z" fill="#FEFEFE"/>
</svg>
