<svg width="178" height="51" viewBox="0 0 178 51" fill="none" xmlns="http://www.w3.org/2000/svg">
<path fill-rule="evenodd" clip-rule="evenodd" d="M105.161 20.586C105.143 20.6685 105.116 20.7535 105.081 20.8376C103.493 25.5061 98.3063 36.0325 95.8968 40.705C95.8539 40.7989 95.8029 40.879 95.743 40.9437C95.6896 41.0044 95.6289 41.0554 95.5618 41.0958L95.4874 41.1347L95.4882 41.1363C95.4218 41.1695 95.349 41.1954 95.2729 41.2123H95.2705C95.1953 41.2301 95.1095 41.239 95.0156 41.239C94.908 41.239 94.8126 41.2277 94.73 41.2067C94.6507 41.1865 94.5739 41.1549 94.4994 41.112L94.442 41.074C94.3765 41.0311 94.3182 40.9785 94.2689 40.9195C94.2163 40.8572 94.1718 40.7851 94.1354 40.705L94.1329 40.6994C93.0989 38.4525 92.0365 36.1935 90.9718 33.9305C89.4458 30.6844 87.9134 27.4269 86.4441 24.1582L86.2822 23.7981H79.1169H78.5084V40.0351C78.5084 40.1257 78.5003 40.2099 78.4858 40.2884C78.4704 40.366 78.4469 40.4437 78.4162 40.5198V40.5222C78.3863 40.5966 78.349 40.667 78.3053 40.7326C78.2608 40.7997 78.2058 40.8652 78.1427 40.9284L78.1354 40.9332C78.0731 40.9971 78.01 41.0505 77.9493 41.091C77.8854 41.1347 77.8134 41.1727 77.7333 41.2059C77.6589 41.235 77.5812 41.2585 77.5011 41.2746C77.4234 41.2892 77.3401 41.2965 77.2503 41.2965H75.0123C74.9225 41.2965 74.8392 41.2892 74.7615 41.2746C74.683 41.2593 74.6053 41.2358 74.5293 41.2051C74.4557 41.1751 74.3836 41.1363 74.3141 41.0894H74.3116C74.2477 41.0473 74.1838 40.9939 74.1207 40.93C74.056 40.8652 74.0018 40.7997 73.9589 40.735C73.9168 40.6727 73.8788 40.5999 73.8456 40.5198L73.8286 40.4655C73.8027 40.3935 73.7841 40.324 73.772 40.256V40.2536C73.7606 40.1848 73.7542 40.112 73.7542 40.0351V23.7981H68.9845C68.8947 23.7981 68.8106 23.79 68.7329 23.7755C68.6552 23.7601 68.5776 23.7366 68.5007 23.7067L68.4424 23.6776C68.3729 23.6452 68.3114 23.6096 68.2604 23.5716C68.2021 23.5303 68.1463 23.4834 68.0945 23.4316L68.0929 23.4292C67.9675 23.3054 67.8753 23.1711 67.8162 23.0271C67.7571 22.883 67.7272 22.7196 67.7272 22.5367V20.7527C67.7272 20.6621 67.7345 20.5779 67.7498 20.5002C67.7644 20.4226 67.7879 20.3449 67.8178 20.2688L67.8461 20.2114C67.8777 20.1434 67.9117 20.0827 67.9489 20.0302V20.0277C67.9869 19.9735 68.0355 19.9169 68.0929 19.8602L68.1002 19.853C68.156 19.7963 68.2167 19.7454 68.2822 19.7009C68.3494 19.6564 68.4222 19.6167 68.5007 19.5851H68.5031C68.5767 19.5544 68.6536 19.5309 68.7337 19.5156C68.8122 19.4994 68.8963 19.4921 68.9845 19.4921H87.716C87.758 19.4921 87.7977 19.4937 87.8341 19.497L87.9482 19.5099L88.0048 19.5196H88.4725C88.559 19.5196 88.6375 19.5253 88.7063 19.5366C88.784 19.5479 88.8665 19.5682 88.9531 19.5957C89.0308 19.6191 89.106 19.6475 89.178 19.6814C89.2508 19.7146 89.3269 19.7559 89.4054 19.8036L89.4151 19.8085C89.483 19.8497 89.5526 19.9007 89.6246 19.9606C89.6894 20.014 89.7492 20.0714 89.8034 20.1321C89.8617 20.1968 89.9119 20.2616 89.9523 20.3239C89.9952 20.3886 90.0316 20.4574 90.0624 20.5277C91.4985 24.032 93.4015 27.7344 95.0156 31.2192L99.9787 20.5099C100.009 20.442 100.046 20.3764 100.087 20.3141C100.132 20.247 100.179 20.1855 100.227 20.1321C100.28 20.0738 100.339 20.0172 100.404 19.963C100.472 19.908 100.545 19.8554 100.623 19.8077C100.696 19.7623 100.773 19.7203 100.854 19.6831C100.933 19.6466 101.008 19.6167 101.08 19.5957C101.167 19.5682 101.25 19.5479 101.327 19.5366C101.395 19.5253 101.474 19.5196 101.56 19.5196H104.23C104.323 19.5196 104.407 19.5277 104.478 19.5423C104.553 19.5576 104.625 19.5811 104.693 19.6119C104.771 19.6458 104.841 19.6903 104.904 19.7437C104.962 19.7947 105.013 19.8546 105.056 19.9242C105.099 19.9921 105.131 20.0641 105.153 20.1402C105.174 20.2146 105.184 20.2939 105.184 20.3781C105.184 20.4444 105.177 20.514 105.161 20.586ZM52.7475 49.6189C52.572 49.7953 52.3624 49.9377 52.1318 50.0315C51.9093 50.1246 51.6642 50.1755 51.4077 50.1755H40.9889H1.8941C1.63762 50.1755 1.39165 50.1246 1.16915 50.0315C0.938554 49.9377 0.729807 49.7953 0.554232 49.6189C0.379467 49.4433 0.239493 49.2337 0.14321 49.0023C0.0517823 48.7798 0 48.5339 0 48.2766V11.711C0 11.1859 0.212793 10.711 0.554232 10.3679C0.729807 10.1923 0.938554 10.0507 1.16915 9.95526C1.39165 9.86222 1.63762 9.81124 1.8941 9.81124H19.1724V9.81529L19.454 9.81691C19.5802 9.81691 19.7056 9.82904 19.8294 9.85413C19.9532 9.87921 20.0745 9.91723 20.1894 9.96659C20.3019 10.0127 20.4135 10.0734 20.5195 10.1462C20.6215 10.2166 20.7186 10.2991 20.8076 10.3906L36.8269 26.9787C37.0001 27.1672 37.1279 27.3824 37.2104 27.6098C37.2962 27.8452 37.335 28.0952 37.3245 28.3412C37.314 28.588 37.2557 28.8323 37.1514 29.0605C37.0494 29.279 36.9038 29.4845 36.7161 29.6576L23.2753 42.0846C23.1879 42.176 23.0909 42.2601 22.9841 42.3338C22.8797 42.4066 22.768 42.4689 22.6499 42.519C22.5342 42.5692 22.4112 42.608 22.2842 42.6339C22.1644 42.6574 22.0366 42.672 21.9055 42.672C21.6474 42.672 21.4023 42.6194 21.1798 42.5271C20.95 42.4317 20.7404 42.2901 20.5657 42.1153C20.3901 41.9397 20.2501 41.7294 20.1538 41.4988C20.0616 41.2755 20.0114 41.0303 20.0114 40.7722V24.1226C20.0114 23.8645 20.0616 23.6185 20.1538 23.3952C20.2501 23.1646 20.3901 22.955 20.5657 22.7795C20.7404 22.6047 20.95 22.4615 21.1798 22.366C21.4023 22.2746 21.6474 22.2236 21.9055 22.2236C22.4266 22.2236 22.9015 22.4356 23.2438 22.7795C23.4194 22.955 23.5601 23.1646 23.6556 23.3952C23.7478 23.6185 23.7988 23.8645 23.7988 24.1226V36.4427L26.6096 33.8463C28.5587 32.0477 30.5046 30.2507 32.6099 28.2951L32.7305 28.1826L28.4139 23.7059C25.1832 20.3538 21.9525 17.0001 18.7064 13.6593L18.6586 13.61H3.7882V46.3752H3.9484C11.6745 46.397 19.2444 46.4068 26.6509 46.4068C34.0574 46.4068 41.6265 46.397 49.3534 46.3752H49.5136V13.61H41.9679H29.5272C29.0046 13.61 28.5304 13.3972 28.1882 13.0541C28.0126 12.8793 27.8718 12.669 27.7755 12.4384C27.6849 12.2151 27.6339 11.9683 27.6339 11.711C27.6339 11.6034 27.6412 11.4982 27.6574 11.4003C27.6736 11.2992 27.6995 11.198 27.7318 11.1009C27.765 11.0039 27.8079 10.9068 27.8548 10.8161C27.9034 10.7255 27.9608 10.6381 28.0231 10.5564L34.4765 0.848052C34.6165 0.63445 34.7945 0.458876 34.9943 0.322947C35.2022 0.182973 35.4345 0.0866906 35.6748 0.0373356C35.9143 -0.0112103 36.1675 -0.0128285 36.4143 0.0349083C36.6497 0.0802178 36.8819 0.172455 37.0955 0.314047C37.3075 0.455639 37.4839 0.633641 37.619 0.835107C37.7598 1.04304 37.8561 1.27445 37.9046 1.51556C37.9532 1.75829 37.9548 2.00992 37.9079 2.2575C37.8626 2.49457 37.7687 2.72678 37.6287 2.93957L33.0606 9.81124H43.0691H51.4077C51.6642 9.81124 51.9093 9.86222 52.1326 9.95526C52.3624 10.0507 52.572 10.1923 52.7475 10.3679C52.9223 10.5435 53.0631 10.7538 53.1586 10.9836C53.2508 11.2061 53.3018 11.4521 53.3018 11.711V48.2766C53.3018 48.5339 53.2508 48.7798 53.1586 49.0023C53.0631 49.2337 52.9223 49.4433 52.7475 49.6189Z" fill="#A82682"/>
<path fill-rule="evenodd" clip-rule="evenodd" d="M31.912 50.1755C30.2606 49.0428 28.7039 47.7822 27.2548 46.4068C31.7728 46.4068 36.3515 46.4019 40.9892 46.3938V50.1755H31.912ZM41.9683 13.61H29.5276C29.0049 13.61 28.5308 13.3972 28.1885 13.0541C28.0129 12.8793 27.8721 12.669 27.7759 12.4384C27.6844 12.2151 27.6343 11.9683 27.6343 11.711C27.6343 11.6034 27.6416 11.4982 27.6577 11.4003C27.6739 11.2992 27.6998 11.198 27.7322 11.1009C27.7653 11.0039 27.8082 10.9068 27.8552 10.8161C27.9037 10.7255 27.9611 10.6381 28.0234 10.5564L34.4768 0.848052C34.6168 0.63445 34.7948 0.458876 34.9946 0.322947C35.2026 0.182973 35.4348 0.0866906 35.6751 0.0373356C35.9146 -0.0112103 36.1678 -0.0128285 36.4146 0.0349083C36.6501 0.0802178 36.8823 0.172455 37.0959 0.314047C37.3078 0.455639 37.4842 0.633641 37.6194 0.835107C37.7601 1.04304 37.8564 1.27445 37.905 1.51556C37.9535 1.75829 37.9551 2.00992 37.9074 2.2575C37.8629 2.49457 37.769 2.72678 37.6291 2.93957L33.0609 9.81124H43.0694C42.6382 11.0492 42.2692 12.3178 41.9683 13.61ZM23.3202 42.0433L36.7164 29.6576C36.9041 29.4845 37.0497 29.279 37.1517 29.0605C37.2561 28.8323 37.3143 28.588 37.3248 28.3412C37.3354 28.0952 37.2965 27.8452 37.2108 27.6098C37.1282 27.3824 37.0004 27.1672 36.8272 26.9787L20.8079 10.3906C20.7189 10.2991 20.6218 10.2166 20.5199 10.1462C20.4139 10.0734 20.3022 10.0127 20.1898 9.96659C20.0749 9.91643 19.9535 9.87921 19.8297 9.85413C19.7059 9.82904 19.5805 9.81691 19.4543 9.81691L19.1727 9.81529V9.81124H15.5107V13.61H18.6589L18.7067 13.6593C21.9528 17.0001 25.1835 20.3538 28.4142 23.7059L32.7308 28.1826L32.611 28.2951C30.505 30.2507 28.5591 32.0477 26.61 33.8463L23.7991 36.4427V24.1226C23.7991 23.8645 23.7482 23.6185 23.6559 23.3952C23.5605 23.1646 23.4197 22.955 23.2441 22.7795C22.9019 22.4356 22.4269 22.2236 21.9059 22.2236C21.6478 22.2236 21.4026 22.2746 21.1801 22.366C20.9503 22.4615 20.7408 22.6047 20.566 22.7795C20.3904 22.955 20.2504 23.1646 20.155 23.3952C20.0619 23.6185 20.0118 23.8645 20.0118 24.1226V36.9541C20.9786 38.7422 22.0871 40.4429 23.3202 42.0433Z" fill="#F08019"/>
<path fill-rule="evenodd" clip-rule="evenodd" d="M177.979 40.2867C177.963 40.3651 177.94 40.4428 177.909 40.5189L177.881 40.5795C177.85 40.6475 177.814 40.7098 177.775 40.7656C177.74 40.8166 177.692 40.8716 177.635 40.9291C177.57 40.9946 177.508 41.0472 177.449 41.0885C177.385 41.1305 177.316 41.1686 177.239 41.2009C177.163 41.2341 177.086 41.2584 177.01 41.2738C176.939 41.2883 176.86 41.2964 176.772 41.2964H174.505C174.415 41.2964 174.332 41.2883 174.255 41.2738C174.177 41.2584 174.099 41.2349 174.022 41.205L173.961 41.1759C173.901 41.1475 173.838 41.1111 173.776 41.0674H173.774C173.724 41.0326 173.67 40.9857 173.613 40.9291C173.553 40.8684 173.5 40.8045 173.457 40.7406C173.414 40.6742 173.376 40.6014 173.343 40.5237L173.341 40.5181C173.31 40.4444 173.287 40.3668 173.271 40.2867C173.256 40.2074 173.248 40.1232 173.248 40.035V31.3299C171.506 33.4174 169.515 35.602 167.903 37.7339C167.849 37.8003 167.79 37.861 167.726 37.9144C167.662 37.9678 167.597 38.0115 167.531 38.0463C167.455 38.0851 167.378 38.1142 167.302 38.1328C167.23 38.1506 167.148 38.1595 167.058 38.1595C166.887 38.1595 166.736 38.1272 166.605 38.0624C166.468 37.9953 166.34 37.8877 166.221 37.7428C164.458 35.9135 162.56 33.3316 160.867 31.2935V40.035C160.867 40.1248 160.86 40.209 160.845 40.2867C160.83 40.3651 160.807 40.442 160.776 40.5181L160.748 40.5795C160.719 40.6435 160.683 40.705 160.642 40.7632V40.7648C160.606 40.8166 160.559 40.8716 160.502 40.9291C160.44 40.9906 160.377 41.0432 160.313 41.086C160.241 41.1338 160.169 41.1734 160.097 41.2026H160.092C160.018 41.2333 159.94 41.2568 159.86 41.2721C159.781 41.2883 159.698 41.2964 159.61 41.2964H157.372C157.283 41.2964 157.198 41.2883 157.121 41.2738C157.042 41.2584 156.965 41.2349 156.889 41.205L156.829 41.1759C156.761 41.1435 156.699 41.1079 156.647 41.0707C156.589 41.0294 156.534 40.9817 156.482 40.9299L156.475 40.9226C156.418 40.8668 156.367 40.8045 156.323 40.7389C156.281 40.6758 156.243 40.603 156.21 40.5237L156.207 40.5181C156.177 40.4444 156.154 40.3668 156.138 40.2867C156.122 40.2074 156.114 40.1232 156.114 40.035V20.3505C156.114 20.2396 156.129 20.1417 156.157 20.0576C156.184 19.9767 156.227 19.8998 156.283 19.8278L156.286 19.8237C156.342 19.7509 156.407 19.6935 156.48 19.6514H156.482C156.562 19.6061 156.656 19.5737 156.762 19.5551L156.816 19.5478V19.5495C156.904 19.5389 156.985 19.5381 157.058 19.547H157.06C157.13 19.5559 157.204 19.5762 157.279 19.6061C157.354 19.636 157.425 19.6773 157.492 19.7275C157.563 19.7809 157.627 19.8448 157.686 19.9184C160.144 22.2195 164.615 28.4949 167.043 31.499C169.637 28.2991 173.752 22.5156 176.433 19.9168C176.491 19.8432 176.555 19.7792 176.623 19.7275V19.7258C176.688 19.6757 176.759 19.636 176.834 19.6061H176.837C176.916 19.5745 176.996 19.5543 177.079 19.5454C177.165 19.5365 177.253 19.5398 177.345 19.5551C177.458 19.5745 177.555 19.6069 177.635 19.6522C177.705 19.6919 177.767 19.7428 177.818 19.8043L177.884 19.899C177.919 19.9548 177.947 20.0196 177.967 20.0924C177.99 20.1692 178 20.2558 178 20.3505V40.035C178 40.1248 177.993 40.209 177.979 40.2867ZM151.137 34.801L151.112 34.8536C150.968 35.1837 150.808 35.5073 150.637 35.8229C150.468 36.1319 150.285 36.4305 150.091 36.7193L150.093 36.7201C149.891 37.0195 149.675 37.3092 149.445 37.5891C149.226 37.8545 148.985 38.1199 148.722 38.3828V38.3845C148.219 38.8902 147.668 39.3449 147.071 39.7502C146.472 40.1556 145.832 40.5075 145.151 40.8053C144.82 40.9493 144.472 41.0788 144.11 41.1928C143.745 41.3077 143.383 41.4016 143.025 41.4744C142.657 41.5497 142.282 41.6055 141.901 41.6443C141.534 41.6799 141.152 41.6985 140.757 41.6985C139.99 41.6985 139.24 41.6241 138.51 41.4744C138.156 41.4024 137.796 41.3085 137.433 41.1928C137.072 41.0788 136.724 40.9493 136.392 40.8045C136.046 40.6532 135.715 40.4914 135.4 40.3182C135.091 40.1491 134.783 39.9598 134.479 39.7543C134.17 39.5447 133.88 39.3287 133.611 39.1054C133.346 38.8877 133.082 38.6458 132.819 38.3828H132.818C132.564 38.1288 132.324 37.8642 132.099 37.5899C131.877 37.3197 131.661 37.0284 131.452 36.7193C131.247 36.4135 131.058 36.1052 130.89 35.7954C130.713 35.4725 130.552 35.1416 130.405 34.8034C130.261 34.4709 130.132 34.1213 130.018 33.7572C129.904 33.3923 129.81 33.0299 129.738 32.6714V32.669C129.662 32.2992 129.606 31.9238 129.568 31.5443C129.531 31.1762 129.513 30.7927 129.513 30.3946C129.513 29.6252 129.588 28.8727 129.737 28.1372L129.747 28.0903C129.821 27.7343 129.913 27.3783 130.025 27.0231C130.137 26.6663 130.262 26.3265 130.401 26.0036H130.404C130.556 25.6493 130.717 25.3159 130.887 25.0036C131.056 24.6913 131.245 24.3806 131.452 24.0731V24.0699C131.652 23.773 131.866 23.4857 132.093 23.209C132.319 22.9339 132.561 22.6661 132.819 22.4072C133.065 22.1588 133.329 21.9185 133.611 21.6855C133.888 21.4549 134.178 21.2381 134.479 21.0342C134.783 20.8278 135.09 20.6401 135.399 20.4702C135.717 20.2963 136.043 20.1353 136.377 19.9896L136.378 19.9912L136.439 19.9661C136.774 19.8221 137.115 19.6951 137.463 19.5859C137.814 19.4758 138.164 19.3852 138.51 19.314C138.876 19.2388 139.248 19.1821 139.622 19.1449C139.986 19.1077 140.364 19.0899 140.757 19.0899C141.533 19.0899 142.289 19.1643 143.025 19.314C143.379 19.386 143.739 19.4799 144.102 19.594C144.466 19.7089 144.816 19.8391 145.15 19.9848C145.49 20.132 145.821 20.2938 146.142 20.4702C146.453 20.6393 146.76 20.8278 147.064 21.0342L147.065 21.0325C147.364 21.2348 147.653 21.4517 147.931 21.6822C148.204 21.908 148.468 22.1483 148.722 22.4032L148.725 22.4056C148.98 22.6613 149.221 22.9274 149.446 23.2017C149.667 23.4712 149.883 23.7624 150.091 24.0731C150.298 24.3814 150.487 24.6921 150.657 25.0044C150.826 25.3159 150.987 25.6501 151.139 26.0036C151.286 26.3467 151.416 26.6946 151.525 27.0466C151.639 27.4107 151.733 27.7739 151.806 28.1348V28.1364C151.881 28.5062 151.938 28.8792 151.975 29.2554C152.012 29.6211 152.03 30.0014 152.03 30.3946C152.03 31.1827 151.956 31.9416 151.808 32.669C151.659 33.402 151.435 34.1124 151.137 34.801ZM147.243 29.736V29.7336C147.221 29.503 147.189 29.2853 147.147 29.0815L147.134 28.9989C147.091 28.7966 147.039 28.5984 146.978 28.4059C146.917 28.2133 146.844 28.0167 146.76 27.8152C146.679 27.6178 146.584 27.4163 146.478 27.2132C146.373 27.011 146.263 26.8208 146.151 26.6469C146.033 26.4632 145.909 26.2884 145.78 26.1234C145.65 25.9583 145.51 25.7965 145.361 25.6404C145.215 25.4874 145.061 25.3402 144.9 25.1994V25.197C144.752 25.0675 144.587 24.9364 144.406 24.8054L144.401 24.8005C144.23 24.6808 144.048 24.5626 143.853 24.4486C143.665 24.3377 143.478 24.2382 143.293 24.1508H143.291C143.083 24.0529 142.882 23.9704 142.69 23.904C142.49 23.8353 142.286 23.777 142.077 23.7317H142.073C141.864 23.688 141.651 23.6548 141.433 23.6322C141.207 23.6087 140.986 23.5966 140.771 23.5966C140.557 23.5966 140.336 23.6087 140.11 23.6322C139.886 23.6564 139.673 23.6904 139.469 23.7341L139.381 23.7511C139.195 23.7948 139.006 23.8514 138.812 23.9194H138.81C138.623 23.9858 138.436 24.0634 138.249 24.1508C138.057 24.2422 137.864 24.3442 137.674 24.4566C137.49 24.5643 137.312 24.6808 137.142 24.8021L137.14 24.8013C136.97 24.9235 136.804 25.0554 136.645 25.1945C136.492 25.328 136.337 25.4769 136.182 25.6404C136.032 25.7973 135.893 25.9575 135.765 26.1218C135.635 26.286 135.511 26.4624 135.392 26.6469C135.28 26.8208 135.171 27.0102 135.066 27.2124C134.96 27.4155 134.865 27.617 134.782 27.8152C134.697 28.0207 134.62 28.2327 134.553 28.4487C134.485 28.6688 134.43 28.8808 134.391 29.0806V29.0879C134.351 29.2991 134.32 29.5176 134.299 29.7417C134.277 29.9715 134.265 30.1899 134.265 30.3946C134.265 30.8485 134.308 31.2927 134.394 31.7248C134.478 32.1536 134.608 32.5743 134.781 32.9862C134.869 33.1965 134.964 33.3956 135.062 33.5817C135.163 33.775 135.273 33.9652 135.392 34.1488C135.505 34.326 135.631 34.5024 135.767 34.678C135.902 34.8511 136.041 35.0138 136.183 35.1643C136.335 35.3261 136.488 35.4749 136.642 35.6109H136.644C136.809 35.7557 136.975 35.8892 137.142 36.0106H137.144C137.324 36.1408 137.503 36.259 137.681 36.3641C137.863 36.4718 138.054 36.5729 138.249 36.6659C138.445 36.7582 138.645 36.8399 138.847 36.9095C139.051 36.9791 139.257 37.0373 139.462 37.0818C139.668 37.1263 139.884 37.1611 140.109 37.1846C140.336 37.2088 140.556 37.2202 140.771 37.2202C140.987 37.2202 141.207 37.2088 141.432 37.1846C141.656 37.1611 141.87 37.1271 142.072 37.0826L142.121 37.0713C142.332 37.0236 142.53 36.9677 142.715 36.9038V36.9014C142.919 36.831 143.113 36.7517 143.293 36.6659C143.484 36.5761 143.675 36.4742 143.864 36.3625C144.05 36.2533 144.229 36.1352 144.401 36.0114L144.406 36.009C144.573 35.8852 144.741 35.75 144.906 35.6036C145.067 35.4612 145.219 35.3147 145.359 35.1643C145.501 35.0138 145.64 34.8511 145.776 34.6772C145.912 34.5016 146.038 34.326 146.151 34.1488C146.269 33.9652 146.38 33.775 146.482 33.5817C146.58 33.3948 146.674 33.1965 146.762 32.9862C146.846 32.7879 146.92 32.5816 146.984 32.3704C147.047 32.1641 147.101 31.9505 147.146 31.7329L147.156 31.6851C147.195 31.482 147.225 31.2676 147.246 31.0443C147.267 30.8153 147.277 30.5985 147.277 30.3946C147.277 30.1867 147.266 29.9666 147.243 29.736ZM126.531 25.1193C126.473 25.2568 126.392 25.3758 126.291 25.4737C126.185 25.5748 126.051 25.659 125.89 25.7269C125.552 25.8677 125.186 26.019 124.791 26.1792C124.414 26.3329 124.063 26.4737 123.75 26.5975L123.738 26.6024C123.6 26.6598 123.458 26.693 123.313 26.7011C123.166 26.7092 123.012 26.6938 122.851 26.6533L122.789 26.6347C122.716 26.6137 122.643 26.5862 122.57 26.5538C122.503 26.5239 122.44 26.4907 122.381 26.4543L122.38 26.4559C122.326 26.4219 122.27 26.3799 122.212 26.3305H122.209C122.159 26.2884 122.109 26.2399 122.063 26.1865C121.882 25.9769 121.642 25.7722 121.472 25.5611C121.372 25.4615 121.269 25.3628 121.161 25.2657C121.068 25.1816 120.968 25.0983 120.861 25.0149C120.759 24.934 120.652 24.8555 120.541 24.7787C120.427 24.7002 120.308 24.6225 120.189 24.5489L119.858 24.3579C119.724 24.2908 119.586 24.2269 119.451 24.1638L118.734 23.879L118.689 23.8644C118.563 23.8264 118.433 23.7908 118.299 23.7608C118.16 23.7293 118.028 23.7034 117.905 23.6856C117.776 23.6662 117.64 23.6508 117.5 23.6411C117.355 23.6306 117.215 23.6249 117.083 23.6249C116.647 23.6249 116.217 23.6694 115.792 23.7584C115.371 23.8466 114.961 23.9785 114.562 24.1532L114.544 24.1629C114.341 24.26 114.149 24.3636 113.967 24.4728C113.78 24.5845 113.601 24.7034 113.433 24.8272C113.262 24.9526 113.099 25.0845 112.946 25.2229C112.792 25.3612 112.644 25.5093 112.504 25.6638L112.457 25.7124C112.325 25.8596 112.196 26.0166 112.07 26.1808C111.95 26.3378 111.833 26.5069 111.718 26.6841L111.717 26.6865C111.598 26.871 111.487 27.0587 111.386 27.2488C111.289 27.4285 111.196 27.621 111.107 27.8265L111.103 27.8338C111.024 28.0232 110.95 28.2287 110.884 28.4487C110.816 28.672 110.761 28.8873 110.721 29.092V29.0944C110.68 29.2991 110.648 29.5184 110.625 29.7522C110.602 29.9852 110.59 30.2101 110.59 30.4237C110.59 30.6406 110.602 30.8679 110.625 31.1042C110.648 31.3429 110.68 31.5646 110.721 31.7685C110.762 31.978 110.816 32.19 110.882 32.4028C110.95 32.618 111.024 32.8211 111.107 33.0112L111.134 33.0824C111.213 33.2637 111.303 33.4457 111.402 33.6278C111.499 33.8082 111.604 33.9854 111.717 34.1602L111.755 34.2233C111.867 34.3932 111.985 34.5574 112.108 34.7152C112.239 34.8843 112.37 35.0405 112.501 35.1837L112.517 35.1999C112.651 35.3503 112.794 35.4952 112.946 35.6335C113.102 35.7743 113.263 35.9054 113.429 36.0251C113.603 36.1497 113.778 36.263 113.955 36.3625C114.139 36.4653 114.331 36.5608 114.531 36.6457L114.624 36.6935C114.811 36.7808 114.996 36.8561 115.179 36.9184C115.359 36.9807 115.552 37.0341 115.756 37.0794C115.969 37.1271 116.185 37.1619 116.404 37.1846C116.633 37.2088 116.859 37.2202 117.083 37.2202C117.364 37.2202 117.639 37.2008 117.905 37.1603H117.908C118.02 37.1441 118.146 37.1198 118.284 37.0883C118.424 37.0567 118.548 37.0244 118.654 36.9928C118.795 36.9402 118.94 36.8804 119.082 36.8326C119.265 36.7574 119.433 36.6845 119.626 36.5931C119.808 36.5082 119.983 36.4184 120.172 36.3107L120.196 36.2962C120.317 36.2193 120.432 36.1416 120.539 36.0656C120.646 35.9895 120.75 35.9102 120.851 35.8261C121.062 35.6505 121.261 35.4604 121.46 35.2694L122.048 34.6448L122.064 34.6311C122.114 34.5744 122.163 34.5251 122.21 34.4854C122.261 34.4409 122.316 34.3997 122.374 34.3616L122.381 34.3568C122.441 34.3163 122.508 34.2799 122.576 34.2475C122.648 34.2144 122.728 34.1852 122.817 34.1594L122.824 34.1569C122.906 34.131 122.987 34.1124 123.064 34.1027H123.067C123.142 34.093 123.219 34.0898 123.296 34.093L123.344 34.0962C123.419 34.1011 123.49 34.1116 123.552 34.127C123.614 34.1424 123.682 34.165 123.751 34.195L125.947 35.0858C126.016 35.1173 126.078 35.1521 126.134 35.1901C126.187 35.2266 126.242 35.2727 126.298 35.3269L126.344 35.3803C126.39 35.4337 126.432 35.4887 126.465 35.547C126.5 35.6068 126.53 35.6699 126.553 35.7347V35.7371C126.582 35.818 126.602 35.9005 126.611 35.9839C126.62 36.0656 126.619 36.1473 126.608 36.2282C126.598 36.3051 126.577 36.3844 126.549 36.4645C126.521 36.5381 126.483 36.6142 126.433 36.6935L126.372 36.7752H126.369L125.815 37.5203V37.5228C125.773 37.5794 125.729 37.6352 125.682 37.6911L125.493 37.9111C125.426 37.9904 125.344 38.0754 125.264 38.1579L125.14 38.2898C124.984 38.454 124.817 38.6183 124.638 38.7809C124.452 38.95 124.267 39.1078 124.083 39.2518C123.899 39.3958 123.696 39.5431 123.476 39.692C123.266 39.8336 123.055 39.9663 122.846 40.0884L122.796 40.1167C122.698 40.1766 122.6 40.2349 122.503 40.2899C122.393 40.3522 122.292 40.4072 122.203 40.4541C122.084 40.5164 121.969 40.5747 121.859 40.6281C121.747 40.6815 121.639 40.7308 121.537 40.7754C121.444 40.8158 121.328 40.8635 121.185 40.9202C121.069 40.9655 120.952 41.01 120.835 41.0513C120.731 41.0885 120.611 41.1281 120.474 41.1726C120.343 41.2139 120.221 41.2511 120.113 41.2802L120.049 41.2956C119.545 41.4315 119.046 41.5335 118.557 41.5998C118.071 41.6654 117.579 41.6985 117.083 41.6985C116.315 41.6985 115.565 41.6241 114.836 41.4744C114.477 41.4008 114.117 41.3077 113.757 41.1937C113.401 41.0812 113.054 40.9509 112.717 40.8045C112.03 40.5043 111.388 40.1523 110.793 39.7478C110.203 39.3473 109.649 38.8877 109.132 38.3683H109.129C108.877 38.1158 108.639 37.8521 108.415 37.5794C108.195 37.3124 107.981 37.0236 107.774 36.7161C107.57 36.4119 107.382 36.1044 107.214 35.7937C107.042 35.479 106.881 35.1473 106.731 34.801C106.432 34.1124 106.209 33.4045 106.06 32.6771C105.912 31.9538 105.838 31.2021 105.838 30.4237C105.838 29.6438 105.912 28.8921 106.06 28.1688C106.209 27.4414 106.432 26.7334 106.731 26.0457C106.874 25.718 107.034 25.3928 107.21 25.0708C107.388 24.7463 107.576 24.4348 107.774 24.1387C107.971 23.8433 108.184 23.5529 108.412 23.2697C108.638 22.9889 108.877 22.7179 109.126 22.4574L109.137 22.446C109.396 22.196 109.666 21.9573 109.946 21.7308C110.23 21.5018 110.521 21.2866 110.817 21.0876C111.112 20.8893 111.422 20.7008 111.746 20.5228C112.056 20.3521 112.376 20.1927 112.704 20.0479L112.76 20.0236C113.092 19.8804 113.433 19.7542 113.781 19.6449C114.133 19.5349 114.485 19.4435 114.835 19.3723C115.202 19.297 115.574 19.2396 115.948 19.2024C116.312 19.1651 116.69 19.1473 117.083 19.1473C117.587 19.1473 118.088 19.1821 118.584 19.2509C119.089 19.3205 119.593 19.4241 120.092 19.5616L120.113 19.5665C120.351 19.6328 120.591 19.7072 120.831 19.7914C121.065 19.8731 121.3 19.9637 121.531 20.0624H121.533C121.752 20.1547 121.974 20.259 122.201 20.3739C122.414 20.4824 122.627 20.5997 122.838 20.7243C122.969 20.8019 123.076 20.8675 123.155 20.9185C123.237 20.9711 123.338 21.0382 123.459 21.1224L123.508 21.1555C123.607 21.2243 123.705 21.2947 123.8 21.3651C123.884 21.4274 123.974 21.497 124.07 21.573L124.362 21.8101C124.446 21.8813 124.534 21.9582 124.627 22.0407C124.725 22.1289 124.814 22.2106 124.89 22.2826L125.168 22.5577C125.293 22.6888 125.409 22.8142 125.514 22.9339C125.624 23.0585 125.733 23.1872 125.84 23.3199C125.945 23.4493 126.047 23.5828 126.148 23.7171C126.22 23.8142 126.311 23.9469 126.425 24.1168L126.436 24.1322C126.538 24.2932 126.599 24.4518 126.617 24.6063C126.634 24.752 126.614 24.9033 126.556 25.0594L126.531 25.1193ZM52.7479 49.6188C52.5723 49.7952 52.3628 49.9376 52.1322 50.0314C51.9097 50.1245 51.6645 50.1755 51.408 50.1755H40.9893V46.3937L49.3537 46.3751H49.5139V13.6099H41.9683C42.2693 12.3177 42.6382 11.0491 43.0694 9.81116H51.408C51.6645 9.81116 51.9097 9.86213 52.133 9.95518C52.3628 10.0507 52.5723 10.1922 52.7479 10.3678C52.9226 10.5434 53.0634 10.7538 53.1589 10.9835C53.2511 11.206 53.3021 11.452 53.3021 11.7109V48.2765C53.3021 48.5338 53.2511 48.7798 53.1589 49.0023C53.0634 49.2337 52.9226 49.4432 52.7479 49.6188Z" fill="#E41A4B"/>
</svg>
