<svg width="48" height="48" viewBox="0 0 48 48" fill="none" xmlns="http://www.w3.org/2000/svg">
<circle cx="24" cy="24" r="24" fill="#1C1C1C"/>
<path fill-rule="evenodd" clip-rule="evenodd" d="M19.9492 18.0238V24.2982C19.9492 25.4508 20.4669 26.4776 21.0502 27.0555C21.2396 27.2434 21.3369 27.3353 21.547 27.494C23.12 28.6836 25.2626 28.5111 26.701 27.075C27.0176 26.7588 27.3074 26.3687 27.4876 25.9131C27.6801 25.4267 27.8214 24.9616 27.8214 24.2984V18.0241C27.8214 16.8238 27.3292 15.8736 26.7204 15.2667C26.3352 14.8829 26.1069 14.6932 25.6003 14.4384C25.1319 14.2029 24.5936 14.072 24.0491 14.0488H23.7002C23.1726 14.0713 22.6519 14.1957 22.1963 14.4252C20.8276 15.1153 19.9492 16.427 19.9492 18.0238Z" fill="#606060"/>
<path fill-rule="evenodd" clip-rule="evenodd" d="M17.4922 24.3365C17.4922 25.5176 17.7324 26.2713 18.1319 27.1652C18.182 27.2771 18.219 27.3137 18.2719 27.4151C18.5072 27.8686 18.8588 28.3761 19.2167 28.7305C20.0304 29.5371 20.8105 30.1194 21.9297 30.4601C22.2848 30.5683 22.7527 30.692 23.1819 30.7277C23.1819 31.2078 23.1778 31.6901 23.1822 32.17C23.187 32.6889 23.3668 32.5983 22.1686 32.5983C21.6877 32.5983 21.2064 32.6006 20.7257 32.5974C19.5347 32.5895 19.7821 34.0013 20.5708 34.0013H27.1958C28.0056 34.0013 28.1939 32.5934 27.0805 32.5969L24.9342 32.5997C24.5201 32.6069 24.5784 32.6187 24.5842 32.2094C24.5909 31.7172 24.5849 31.2206 24.5849 30.7279C25.776 30.6287 27.3184 29.9552 28.1613 29.1211C28.6968 28.5911 29.1274 28.1387 29.4823 27.4413C29.983 26.4569 30.2747 25.6895 30.2747 24.3368C30.2747 23.5041 29.003 23.312 28.8471 24.3122C28.7739 24.7824 28.8816 24.8056 28.685 25.592C28.461 26.4865 27.994 27.2634 27.4008 27.8541L26.6334 28.4896C26.3031 28.7095 26.2429 28.721 25.9233 28.8707C25.8193 28.9193 25.7926 28.9392 25.6815 28.9795L25.1475 29.147C24.9273 29.2093 24.8168 29.2274 24.5641 29.2649C24.0549 29.3404 23.7462 29.3418 23.2371 29.2705C22.7738 29.2054 22.2948 29.0882 21.8705 28.8834C21.7644 28.8322 21.7002 28.8181 21.5974 28.7669C20.174 28.0574 19.1951 26.5894 18.9665 25.0064C18.9169 24.6624 19.0612 23.6354 18.1943 23.6354C17.804 23.6354 17.4929 23.9465 17.4929 24.3368L17.4922 24.3365Z" fill="#606060"/>
</svg>
