<svg width="72" height="24" viewBox="0 0 72 24" fill="none" xmlns="http://www.w3.org/2000/svg">
<path d="M4.90465 0.00222888H63.7781C64.4563 0.00222888 65.0546 0.281795 65.394 0.820548L71.3617 10.5C71.8205 11.2581 71.7416 12.1754 71.0821 12.9345L62.6805 22.6139C62.2217 23.1326 61.6234 23.452 60.9432 23.452H2.2475C1.07065 23.452 0.211578 22.5337 0.350724 21.3759L2.56814 2.07605C2.70888 0.899196 3.72589 0 4.9037 0L4.90465 0.00222888Z" fill="#00C0C9"/>
<path d="M35.2414 6.5406L32.1859 13.4963L30.5983 6.5406H27.462L30.2557 16.612L28.6283 19.9091H31.7239L38.2969 6.5406H35.2414ZM5.65234 19.9091H8.46647L8.92848 16.1108C9.37076 16.4521 10.1948 16.8342 11.2398 16.8342C14.4969 16.8342 16.4866 13.9593 16.4866 10.8245C16.4866 8.15081 15.2203 6.28174 12.8481 6.28174C11.7219 6.28174 10.6969 6.64313 9.91333 7.2876L10.0133 6.54411H7.28007L5.65266 19.9126V19.9101L5.65234 19.9091ZM9.16984 14.1392L9.79329 9.19425C10.396 8.71217 11.0797 8.51062 11.6824 8.53068C12.8879 8.54978 13.5515 9.51553 13.5515 11.0235C13.5515 12.9738 12.5269 14.642 10.7976 14.642C10.2547 14.642 9.63186 14.4614 9.16984 14.1392ZM17.0292 13.8787C17.0082 15.5064 18.3363 16.8345 20.3652 16.8345C21.793 16.8345 22.837 16.2318 23.4398 15.5682L23.3191 16.5932H26.0524L26.7159 11.1461C27.0382 8.45267 26.153 6.26136 22.6957 6.26136C21.2886 6.26136 19.5803 6.58359 18.6553 7.18634L18.3729 9.43784C19.1173 9.03473 20.5642 8.54501 21.8907 8.54501C23.4783 8.54501 24.0419 9.33722 23.9811 10.1823H22.2929C19.8401 10.1823 17.0461 11.1264 17.026 13.881H17.0286L17.0292 13.8787ZM19.864 13.6565C19.864 12.5707 21.1303 12.1685 22.4358 12.1685H23.762L23.5605 13.7963C22.9975 14.2385 21.9929 14.7005 21.1475 14.7005C20.384 14.7005 19.8612 14.2783 19.8612 13.6546L19.864 13.6565ZM54.3732 11.988C54.3337 14.5009 56.1624 16.832 59.9005 16.832C61.2267 16.832 62.3532 16.5706 63.3572 15.9468L63.5591 13.5746C62.7353 14.0777 61.4881 14.4191 60.4036 14.4191C58.9758 14.4191 57.6895 13.7956 57.329 12.3484H64.2844C64.3841 12.087 64.4649 11.4633 64.4649 10.8605C64.4649 8.20781 62.9971 6.27696 59.9817 6.27696C56.9663 6.27696 54.4136 8.06612 54.3735 11.9854V11.987L54.3732 11.988ZM57.3478 10.6408C57.6299 9.31429 58.5931 8.52941 59.7795 8.52941C60.9659 8.52941 61.6088 9.19298 61.6088 10.2587C61.6088 10.3794 61.6088 10.5201 61.5897 10.6408H57.3478ZM40.5879 16.5916L41.5129 9.23469C42.1363 8.81247 42.839 8.47114 43.4434 8.47114C44.2267 8.47114 44.6091 9.05479 44.4891 10.0587L43.6851 16.5922H46.5199L47.4051 9.45567L47.4242 9.25443C48.0476 8.83222 48.7711 8.47082 49.3741 8.47082C50.1574 8.47082 50.5395 9.05447 50.4195 10.0584L49.6155 16.5919H52.4503L53.3355 9.45535C53.5768 7.46559 52.5512 6.25977 50.7226 6.25977C49.4563 6.25977 48.1094 6.9832 47.2054 7.64677C46.8233 6.7619 45.9792 6.25977 44.7925 6.25977C43.6061 6.25977 42.4604 6.84341 41.5562 7.44617L41.6772 6.54188H39.0248L37.7585 16.5932H40.5933H40.5898L40.5882 16.5906L40.5879 16.5916Z" fill="white"/>
</svg>
