<svg width="89" height="21" viewBox="0 0 89 21" fill="none" xmlns="http://www.w3.org/2000/svg">
<path d="M7.94525 18.5633C12.2444 18.5633 15.2382 15.2516 15.2382 10.9389C15.2382 6.62612 12.2444 3.31445 7.94525 3.31445C3.64606 3.31445 0.652344 6.62612 0.652344 10.9389C0.652344 15.2516 3.64606 18.5633 7.94525 18.5633Z" fill="#20CC6D"/>
<path d="M29.8233 9.35841C29.8233 5.95181 27.6367 3.31422 24.4542 3.31422C22.9302 3.31422 21.6639 3.86776 20.7673 4.83167V4.36102C20.7673 3.84566 20.4759 3.57944 19.9606 3.57944H18.0333C17.5179 3.57944 17.2266 3.84516 17.2266 4.36102V19.7435C17.2266 20.2588 17.5179 20.5522 18.0333 20.5522H19.9606C20.4759 20.5522 20.7673 20.2588 20.7673 19.7435V13.8862C21.6639 14.8501 22.9302 15.5136 24.4542 15.5136C27.6367 15.5136 29.8233 12.765 29.8233 9.35841ZM71.2887 10.356H79.3064C79.7887 10.356 80.1267 10.1204 80.1714 9.63869C80.194 9.48198 80.2116 9.3137 80.2116 9.16804C80.2116 5.9071 77.5981 3.31422 74.0458 3.31422C70.4263 3.31422 67.6149 5.95231 67.6149 9.35841C67.6149 12.765 70.3595 15.5131 74.3708 15.5131C76.4328 15.5131 78.0231 14.6813 79.211 13.5717C79.5917 13.2131 79.5696 12.8097 79.2331 12.4285L78.7514 11.8905C78.4154 11.5098 78.0452 11.4982 77.6197 11.7895C76.7231 12.4169 75.6597 12.7198 74.4155 12.7198C72.6896 12.7198 71.5469 11.8237 71.2887 10.356ZM74.0006 5.99701C75.3342 5.99701 76.3082 6.80371 76.5885 8.08156H71.345C71.6926 6.78161 72.6891 5.99701 74.0006 5.99701ZM85.6244 6.66959H87.3382C87.8536 6.66959 88.167 6.37826 88.167 5.8629V4.36152C88.167 3.84616 87.8536 3.57994 87.3382 3.57994H85.6244V0.745456C85.6244 0.291376 85.3597 0.00406018 84.9242 4.17727e-05C84.8689 -0.000460528 84.8106 0.00355788 84.7499 0.0125993L82.7442 0.297404C82.2514 0.375763 82.0048 0.667097 82.0048 1.16036V3.58044H81.0735C80.5582 3.58044 80.2116 3.84616 80.2116 4.36202V5.8634C80.2116 6.37876 80.5582 6.6701 81.0735 6.6701H82.0048V11.332C82.0048 13.9319 83.5288 15.5146 86.0051 15.5146C86.6099 15.5146 87.1931 15.4177 87.6858 15.2494C88.1118 15.1037 88.1675 14.6939 88.1675 14.2458V13.0915C88.1675 12.5535 87.9887 12.2959 87.4507 12.3185H87.1031C86.0383 12.3185 85.6244 11.8925 85.6244 10.9628V6.66959ZM62.5597 3.31422C61.2372 3.31422 60.0618 3.82305 59.2777 4.77542V4.36102C59.2777 3.84566 58.9864 3.57944 58.471 3.57944H56.4874C55.972 3.57944 55.6807 3.84516 55.6807 4.36102V14.3568C55.6807 14.8722 55.9715 15.2484 56.4874 15.2484H58.471C58.9869 15.2484 59.2777 14.8722 59.2777 14.3568V8.88826C59.2777 7.29697 60.3185 6.44557 61.4843 6.44557C62.5266 6.44557 63.3559 7.40948 63.3559 8.45125V14.3568C63.3559 14.8722 63.6472 15.2484 64.1626 15.2484H66.1462C66.6615 15.2484 66.9518 14.8722 66.9518 14.3568V7.88014C66.9518 5.13456 65.1034 3.31422 62.5597 3.31422ZM46.5388 20.5522H48.6229C49.0825 20.5522 49.3849 20.5522 49.5416 19.9002L54.9494 4.48408C54.9961 4.35298 55.0172 4.25654 55.0172 4.12695C55.0172 3.7678 54.7841 3.57944 54.3265 3.57944H52.2646C51.7939 3.57944 51.4915 3.77835 51.3569 4.2264L49.3849 10.5916L47.4465 4.2264C47.3119 3.77835 47.009 3.57944 46.5388 3.57944H44.4769C44.0133 3.57944 43.7465 3.77282 43.7465 4.1395C43.7465 4.25604 43.7712 4.35851 43.8154 4.48408L47.6364 15.2484L45.911 19.6094C45.6869 20.181 45.9336 20.5522 46.5388 20.5522ZM30.4868 9.35891C30.4868 12.7655 32.7286 15.5136 35.9217 15.5136C37.4457 15.5136 38.7009 14.8496 39.6086 13.8862V14.3568C39.6086 14.8722 39.8999 15.2484 40.4153 15.2484H42.2768C42.7922 15.2484 43.0835 14.8722 43.0835 14.3568V4.36102C43.0835 3.84566 42.7922 3.57944 42.2768 3.57944H40.4153C39.8999 3.57944 39.6086 3.84516 39.6086 4.36102V4.83167C38.7009 3.86776 37.4462 3.31422 35.9217 3.31422C32.7281 3.31422 30.4868 5.95281 30.4868 9.35891ZM34.0391 9.35891C34.0391 7.71187 35.2496 6.44557 36.8073 6.44557C38.3759 6.44557 39.6086 7.71187 39.6086 9.35891C39.6086 11.0175 38.3759 12.2728 36.8073 12.2728C35.2496 12.2728 34.0391 11.0175 34.0391 9.35891ZM26.3373 9.35891C26.3373 11.0175 25.1157 12.2728 23.5581 12.2728C22.0004 12.2728 20.7678 11.0175 20.7678 9.35891C20.7678 7.71187 22.0004 6.44557 23.5581 6.44557C25.1157 6.44557 26.3373 7.71187 26.3373 9.35891Z" fill="white"/>
</svg>
