<svg width="26" height="34" viewBox="0 0 26 34" fill="none" xmlns="http://www.w3.org/2000/svg">
<path fill-rule="evenodd" clip-rule="evenodd" d="M9.28571 1.69908C9.28571 1.18624 9.70145 0.770508 10.2143 0.770508H15.7857C16.2985 0.770508 16.7143 1.18624 16.7143 1.69908C16.7143 2.21192 16.2985 2.62765 15.7857 2.62765H10.2143C9.70145 2.62765 9.28571 2.21192 9.28571 1.69908ZM0 8.66336C0 8.15053 0.415736 7.73479 0.928571 7.73479L25.0714 7.7348C25.5843 7.7348 26 8.15053 26 8.66337C26 9.1762 25.5843 9.59194 25.0714 9.59194H25.0504L23.7591 32.9156L23.7105 33.7929H22.832H13.6965H13H3.25003H2.37447L2.32306 32.9188L0.95089 9.59194H0.928571C0.415735 9.59194 0 9.1762 0 8.66336ZM2.81124 9.59194L23.1904 9.59194L21.9534 31.9357H13.6965H13H4.12558L2.81124 9.59194ZM0.928571 4.02051C0.415736 4.02051 0 4.43624 0 4.94908C0 5.46192 0.415736 5.87765 0.928571 5.87765H25.0714C25.5843 5.87765 26 5.46192 26 4.94908C26 4.43624 25.5843 4.02051 25.0714 4.02051H0.928571ZM13.9286 12.3777C13.9286 11.8648 13.5128 11.4491 13 11.4491C12.4872 11.4491 12.0714 11.8648 12.0714 12.3777V29.0919C12.0714 29.6048 12.4872 30.0205 13 30.0205C13.5128 30.0205 13.9286 29.6048 13.9286 29.0919V12.3777ZM7.37709 11.4505C7.88914 11.4221 8.32729 11.8141 8.35574 12.3262L9.28431 29.0405C9.31276 29.5525 8.92072 29.9907 8.40868 30.0191C7.89663 30.0476 7.45847 29.6555 7.43003 29.1435L6.50146 12.4292C6.47301 11.9171 6.86504 11.479 7.37709 11.4505ZM17.6443 12.3262C17.6727 11.8141 18.1109 11.4221 18.6229 11.4505C19.135 11.479 19.527 11.9171 19.4985 12.4292L18.57 29.1435C18.5415 29.6555 18.1034 30.0476 17.5913 30.0191C17.0793 29.9907 16.6872 29.5525 16.7157 29.0405L17.6443 12.3262Z" fill="white"/>
</svg>
