<svg width="199" height="67" viewBox="0 0 199 67" fill="none" xmlns="http://www.w3.org/2000/svg">
<path d="M26.8013 30.0325C26.3088 30.5324 26.004 31.2464 26.004 32.008V53.9047C26.004 54.6663 26.3088 55.3804 26.8013 55.8802C27.2937 56.38 27.9737 56.6894 28.7474 56.6894C29.1226 56.6894 29.4978 56.618 29.8261 56.4752C30.1543 56.3324 30.4826 56.0944 30.7171 55.8326C36.1336 50.3346 42.5115 44.8128 48.186 39.5052C48.7253 38.9816 49.0301 38.2914 49.0536 37.5774C49.1005 36.8634 48.8425 36.1255 48.3501 35.5781L27.5281 13.7528C27.2468 13.4672 26.9654 13.2768 26.6371 13.134C26.2854 12.9912 25.9337 12.9198 25.5585 12.9198H25.4882V12.896H2.74344C1.99309 12.896 1.28965 13.2054 0.797238 13.729C0.304826 14.2288 0 14.9191 0 15.6807V63.782C0 64.5437 0.304826 65.2339 0.797238 65.7575C1.28965 66.2573 1.99309 66.5667 2.74344 66.5667H67.0618C67.8355 66.5667 68.5155 66.2573 69.0079 65.7575C69.5238 65.2339 69.8286 64.5437 69.8286 63.782V15.6807C69.8286 14.9191 69.5238 14.2288 69.0079 13.729C68.5155 13.2054 67.8355 12.896 67.0618 12.896H43.7777L49.4053 4.32771C49.8274 3.68509 49.9446 2.92346 49.8039 2.23324C49.6632 1.51922 49.2646 0.876596 48.6315 0.471983C47.9984 0.0435692 47.2715 -0.0754346 46.5681 0.0435692C45.8881 0.186374 45.255 0.614788 44.8329 1.23361L36.4619 13.9908C36.2743 14.2288 36.1336 14.5144 36.0398 14.8C35.946 15.0857 35.8991 15.3713 35.8991 15.6807C35.8991 16.4661 36.204 17.1563 36.6964 17.6561C37.2122 18.156 37.8922 18.4654 38.6426 18.4654H64.3183V60.9973H5.48687V18.4654H24.4095C30.4123 24.7488 36.415 31.056 42.3943 37.3394C38.7833 40.7429 35.1254 44.1464 31.4909 47.5499V32.008C31.4909 31.2464 31.1861 30.5324 30.6936 30.0325C30.1778 29.5327 29.4978 29.2233 28.7474 29.2233C27.9737 29.2233 27.2937 29.5327 26.8013 30.0325Z" fill="white"/>
<path d="M93.2985 17.4969H100.919L101.083 17.8777C102.631 21.4003 104.272 24.899 105.89 28.3977C107.016 30.8254 108.141 33.253 109.243 35.6569C109.29 35.7521 109.337 35.8235 109.384 35.8949C109.431 35.9663 109.501 36.0139 109.571 36.0615L109.642 36.1091C109.712 36.1567 109.783 36.1805 109.876 36.2043C109.97 36.2281 110.064 36.2281 110.181 36.2281C110.275 36.2281 110.369 36.2281 110.463 36.2043C110.533 36.1805 110.603 36.1567 110.674 36.1329L110.767 36.0853C110.838 36.0377 110.885 35.9901 110.955 35.9187C111.025 35.8473 111.072 35.7759 111.119 35.6569C113.675 30.635 119.185 19.3296 120.873 14.3314C120.897 14.2362 120.92 14.141 120.944 14.0458C120.967 13.9744 120.967 13.903 120.967 13.8316C120.967 13.7364 120.967 13.6412 120.944 13.5698C120.92 13.4984 120.873 13.4032 120.827 13.3318C120.78 13.2604 120.733 13.189 120.686 13.1414C120.616 13.0938 120.545 13.0462 120.451 12.9986C120.381 12.9748 120.311 12.951 120.217 12.9272C120.147 12.9034 120.053 12.9034 119.959 12.9034H117.122C117.028 12.9034 116.958 12.9034 116.887 12.9272C116.794 12.9272 116.7 12.951 116.606 12.9748C116.536 13.0224 116.465 13.0462 116.371 13.07C116.301 13.1176 116.207 13.1652 116.137 13.2128C116.043 13.2604 115.973 13.3318 115.902 13.3794C115.832 13.4508 115.762 13.4984 115.715 13.5698C115.668 13.6174 115.621 13.6888 115.574 13.7602C115.527 13.8316 115.48 13.903 115.457 13.9744L110.181 25.4702C108.469 21.7335 106.453 17.7587 104.929 13.9982C104.882 13.903 104.858 13.8316 104.812 13.7602C104.765 13.7126 104.718 13.6412 104.647 13.5698C104.6 13.4984 104.53 13.427 104.46 13.3794C104.389 13.308 104.319 13.2604 104.225 13.2128C104.132 13.1652 104.061 13.1176 103.991 13.07C103.897 13.0462 103.827 13.0224 103.756 12.9748C103.663 12.951 103.569 12.9272 103.475 12.9272C103.405 12.9034 103.334 12.9034 103.24 12.9034H102.748H102.678L102.56 12.8796C102.514 12.8796 102.467 12.8796 102.443 12.8796H82.5592C82.4654 12.8796 82.3716 12.8796 82.2778 12.9034C82.2075 12.9272 82.1137 12.951 82.0433 12.9748C81.9496 13.0224 81.8792 13.0462 81.8089 13.0938C81.7385 13.1414 81.6682 13.2128 81.6213 13.2604H81.5978C81.5509 13.3318 81.504 13.4032 81.4571 13.4508C81.4102 13.5222 81.3868 13.5698 81.3399 13.6412L81.3165 13.7126C81.293 13.784 81.2696 13.8792 81.2461 13.9506C81.2227 14.0458 81.2227 14.141 81.2227 14.2362V16.1403C81.2227 16.3545 81.2461 16.5211 81.3165 16.6639C81.3868 16.8305 81.4806 16.9733 81.5978 17.1161C81.6682 17.1637 81.7151 17.2113 81.7854 17.2589C81.8323 17.3065 81.9027 17.3303 81.973 17.3779L82.0433 17.4017C82.1137 17.4255 82.2075 17.4731 82.2778 17.4731C82.3716 17.4969 82.4654 17.4969 82.5592 17.4969H87.624V34.9429C87.624 35.0381 87.624 35.1095 87.624 35.1809C87.6475 35.2523 87.6709 35.3237 87.6944 35.3951L87.7178 35.4665C87.7412 35.5617 87.7881 35.6331 87.835 35.7045C87.8819 35.7759 87.9288 35.8473 87.9992 35.8949C88.0695 35.9663 88.1399 36.0377 88.2102 36.0853C88.2806 36.1329 88.3509 36.1805 88.4447 36.2043C88.515 36.2281 88.6088 36.2519 88.6792 36.2757C88.773 36.2995 88.8668 36.2995 88.9605 36.2995H91.3288C91.4226 36.2995 91.5164 36.2995 91.5867 36.2757C91.6805 36.2519 91.7509 36.2281 91.8447 36.2043C91.915 36.1567 92.0088 36.1329 92.0557 36.0853C92.126 36.0377 92.1964 35.9901 92.2667 35.9187V35.8949C92.3371 35.8473 92.4074 35.7759 92.4543 35.7045C92.5012 35.6331 92.5247 35.5379 92.5716 35.4665C92.595 35.3951 92.6185 35.2999 92.6419 35.2047C92.6419 35.1333 92.6654 35.0381 92.6654 34.9429V17.4969H93.2985ZM198.252 34.9429V13.8078C198.252 13.6888 198.252 13.5936 198.229 13.5222C198.206 13.4508 198.159 13.3794 198.135 13.308L198.065 13.2128C197.994 13.1414 197.948 13.0938 197.854 13.0462C197.783 12.9986 197.666 12.9748 197.549 12.951C197.455 12.9272 197.361 12.9272 197.268 12.9272C197.197 12.951 197.103 12.9748 197.01 12.9986C196.939 13.0224 196.869 13.07 196.799 13.1176C196.728 13.189 196.658 13.2604 196.588 13.3318C193.75 16.1165 189.389 22.3285 186.622 25.7796C184.043 22.5427 179.306 15.8071 176.704 13.3318C176.633 13.2604 176.563 13.189 176.493 13.1414C176.422 13.07 176.328 13.0224 176.258 12.9986C176.188 12.9748 176.094 12.951 176.024 12.9272C175.953 12.9272 175.859 12.9272 175.766 12.951V12.9272L175.719 12.951C175.602 12.9748 175.508 12.9986 175.414 13.0462C175.344 13.0938 175.273 13.1414 175.203 13.2366C175.156 13.308 175.109 13.4032 175.062 13.4746C175.039 13.5698 175.015 13.6888 175.015 13.8078V34.9429C175.015 35.0381 175.039 35.1333 175.039 35.2047C175.062 35.2999 175.086 35.3951 175.133 35.4665C175.156 35.5617 175.203 35.6331 175.25 35.7045C175.297 35.7759 175.344 35.8473 175.414 35.8949C175.461 35.9663 175.531 36.0139 175.602 36.0615C175.648 36.1091 175.719 36.1329 175.789 36.1805L175.859 36.2043C175.93 36.2281 176.024 36.2519 176.094 36.2757C176.164 36.2995 176.258 36.2995 176.352 36.2995H178.744C178.837 36.2995 178.908 36.2995 179.001 36.2757C179.095 36.2519 179.166 36.2281 179.236 36.2043H179.259C179.33 36.1567 179.4 36.1329 179.494 36.0615C179.541 36.0377 179.611 35.9663 179.681 35.8949C179.752 35.8473 179.799 35.7759 179.822 35.7283C179.869 35.6569 179.916 35.6093 179.939 35.5379L179.963 35.4665C180.01 35.3713 180.033 35.2999 180.057 35.2047C180.057 35.1333 180.08 35.0381 180.08 34.9429V25.5654C181.862 27.7551 183.879 30.516 185.755 32.4914C185.872 32.6342 186.012 32.7532 186.153 32.8246C186.294 32.896 186.458 32.9198 186.646 32.9198C186.739 32.9198 186.833 32.9198 186.904 32.896C186.974 32.8722 187.068 32.8484 187.138 32.8008C187.208 32.777 187.279 32.7294 187.349 32.658C187.419 32.6104 187.49 32.539 187.537 32.4676C189.248 30.1827 191.359 27.8265 193.211 25.5892V34.9429C193.211 35.0381 193.211 35.1333 193.235 35.2047C193.258 35.2999 193.281 35.3951 193.305 35.4665C193.352 35.5617 193.375 35.6331 193.422 35.7045C193.469 35.7759 193.539 35.8473 193.61 35.8949C193.657 35.9663 193.727 36.0139 193.774 36.0615C193.844 36.1091 193.891 36.1329 193.961 36.1805L194.032 36.2043C194.102 36.2281 194.196 36.2519 194.29 36.2757C194.36 36.2995 194.454 36.2995 194.548 36.2995H196.939C197.033 36.2995 197.127 36.2995 197.197 36.2757C197.291 36.2519 197.361 36.2281 197.455 36.2043C197.526 36.1567 197.596 36.1329 197.666 36.0853C197.737 36.0377 197.807 35.9663 197.854 35.8949C197.924 35.8473 197.971 35.7759 198.018 35.7283C198.065 35.6807 198.088 35.6093 198.135 35.5379L198.159 35.4665C198.182 35.3713 198.206 35.2999 198.229 35.2047C198.252 35.1333 198.252 35.0381 198.252 34.9429ZM156.351 36.4899C157.124 36.6565 157.922 36.7279 158.719 36.7279C159.141 36.7279 159.563 36.7041 159.938 36.6803C160.337 36.6327 160.735 36.5613 161.134 36.4899C161.509 36.4185 161.908 36.2995 162.283 36.1805C162.682 36.0615 163.033 35.9187 163.385 35.7759C164.112 35.4427 164.792 35.0857 165.425 34.6335C166.058 34.2051 166.644 33.7053 167.184 33.1816C167.465 32.896 167.723 32.6104 167.957 32.3248C168.192 32.0154 168.426 31.706 168.637 31.3728C168.848 31.0634 169.036 30.754 169.2 30.4207C169.388 30.0875 169.575 29.7305 169.716 29.3735L169.739 29.3259C170.068 28.5881 170.302 27.8265 170.466 27.041C170.607 26.2556 170.701 25.4464 170.701 24.5896C170.701 24.1611 170.677 23.7565 170.63 23.3757C170.584 22.9711 170.537 22.5665 170.443 22.1619C170.373 21.7811 170.279 21.3765 170.162 20.9956C170.044 20.6148 169.904 20.234 169.739 19.877C169.575 19.4962 169.411 19.1392 169.224 18.806C169.059 18.4728 168.848 18.1158 168.637 17.8063C168.403 17.4731 168.192 17.1399 167.957 16.8543C167.699 16.5687 167.465 16.2831 167.184 15.9975C166.902 15.7357 166.621 15.4739 166.339 15.2359C166.035 14.9741 165.73 14.7598 165.425 14.5218C165.097 14.3076 164.768 14.1172 164.44 13.9268C164.112 13.7364 163.76 13.5698 163.385 13.4032C163.033 13.2604 162.658 13.1176 162.283 12.9748C161.884 12.8558 161.509 12.7606 161.134 12.6892C160.36 12.5226 159.54 12.4512 158.719 12.4512C158.32 12.4512 157.898 12.475 157.523 12.4988C157.124 12.5464 156.726 12.594 156.351 12.6892C155.975 12.7606 155.6 12.8558 155.225 12.9748C154.85 13.0938 154.498 13.2366 154.146 13.3794L154.076 13.4032C153.724 13.5698 153.373 13.7364 153.044 13.9268C152.716 14.1172 152.388 14.3076 152.06 14.5218C151.755 14.7598 151.426 14.9979 151.145 15.2359C150.84 15.4739 150.559 15.7357 150.301 15.9975C150.02 16.2831 149.762 16.5687 149.527 16.8781C149.293 17.1637 149.058 17.4731 148.847 17.8063C148.636 18.1158 148.425 18.4728 148.261 18.806C148.073 19.1392 147.909 19.4962 147.745 19.877C147.581 20.2102 147.464 20.591 147.346 20.9718C147.229 21.3527 147.112 21.7335 147.042 22.1143L147.018 22.1619C146.878 22.9473 146.784 23.7565 146.784 24.5896C146.784 25.018 146.807 25.4226 146.854 25.8272C146.901 26.2318 146.948 26.6364 147.042 27.041C147.112 27.4219 147.206 27.8027 147.323 28.2073C147.44 28.5881 147.581 28.9689 147.745 29.3259C147.886 29.6829 148.073 30.0399 148.261 30.3969C148.425 30.7302 148.636 31.0634 148.847 31.3728C149.082 31.706 149.293 32.0392 149.527 32.3248C149.785 32.6104 150.02 32.896 150.301 33.1816C150.582 33.4434 150.864 33.7053 151.145 33.9433C151.426 34.1813 151.731 34.4193 152.06 34.6335C152.388 34.8715 152.716 35.0619 153.044 35.2523C153.373 35.4427 153.724 35.6093 154.1 35.7759C154.451 35.9187 154.803 36.0615 155.202 36.1805C155.577 36.2995 155.975 36.4185 156.351 36.4899ZM158.039 17.3303C158.273 17.3065 158.508 17.2827 158.742 17.2827C158.977 17.2827 159.211 17.3065 159.446 17.3303C159.68 17.3541 159.891 17.3779 160.126 17.4255C160.36 17.4731 160.571 17.5445 160.782 17.6159C160.97 17.6873 161.204 17.7825 161.415 17.8777C161.626 17.9729 161.814 18.092 162.002 18.211C162.213 18.33 162.424 18.449 162.588 18.568V18.5918C162.799 18.7346 162.963 18.8536 163.127 18.9964C163.291 19.163 163.455 19.3058 163.619 19.4724C163.76 19.639 163.924 19.8294 164.065 19.996C164.206 20.1864 164.323 20.353 164.44 20.5672C164.581 20.7576 164.698 20.948 164.792 21.1623C164.909 21.3765 165.003 21.6145 165.097 21.8287C165.191 22.0429 165.261 22.2333 165.331 22.4475C165.402 22.6617 165.448 22.8759 165.495 23.0901L165.519 23.1853C165.566 23.3995 165.589 23.6375 165.613 23.8755C165.636 24.1373 165.636 24.3754 165.636 24.5896C165.636 24.8038 165.636 25.0418 165.613 25.2798C165.589 25.5178 165.566 25.7558 165.519 25.97V26.0176C165.448 26.2556 165.402 26.4936 165.331 26.7078C165.261 26.9458 165.191 27.16 165.097 27.3742C165.003 27.5885 164.909 27.8027 164.792 28.0169C164.698 28.2311 164.581 28.4215 164.44 28.6119C164.323 28.8023 164.206 28.9927 164.065 29.1831C163.901 29.3735 163.76 29.5401 163.619 29.7067C163.455 29.8733 163.291 30.0399 163.127 30.1827C162.963 30.3493 162.775 30.4921 162.588 30.6112V30.635C162.424 30.754 162.213 30.873 162.025 30.992C161.814 31.111 161.626 31.23 161.415 31.3252C161.228 31.4204 161.017 31.4918 160.806 31.587C160.618 31.6584 160.407 31.706 160.173 31.7536L160.126 31.7774C159.915 31.825 159.68 31.8488 159.446 31.8726C159.211 31.9202 158.977 31.9202 158.742 31.9202C158.508 31.9202 158.273 31.9202 158.039 31.8726C157.804 31.8488 157.57 31.825 157.359 31.7774C157.124 31.7298 156.913 31.6584 156.702 31.587C156.491 31.5156 156.28 31.4204 156.069 31.3252C155.858 31.23 155.647 31.111 155.46 30.992C155.272 30.8968 155.084 30.754 154.897 30.6112C154.709 30.4921 154.545 30.3493 154.357 30.1827C154.193 30.0399 154.029 29.8971 153.865 29.7067C153.724 29.5401 153.584 29.3735 153.443 29.1831C153.279 28.9927 153.162 28.8023 153.021 28.6119C152.904 28.4215 152.786 28.2311 152.693 28.0169C152.575 27.8027 152.482 27.5885 152.388 27.3742C152.2 26.922 152.06 26.4698 151.966 26.0176C151.872 25.5416 151.849 25.0656 151.849 24.5896C151.849 24.3754 151.849 24.1373 151.872 23.8755C151.895 23.6375 151.919 23.4233 151.966 23.1853C152.013 22.9711 152.06 22.7331 152.13 22.4951C152.224 22.2571 152.294 22.0429 152.388 21.8287C152.482 21.6145 152.575 21.3765 152.693 21.1623C152.786 20.948 152.904 20.7576 153.021 20.5672C153.162 20.353 153.302 20.1864 153.42 19.996C153.56 19.8294 153.724 19.639 153.865 19.4724C154.029 19.3058 154.193 19.1392 154.357 18.9964C154.522 18.8536 154.709 18.7108 154.897 18.568V18.5918C155.061 18.449 155.249 18.33 155.46 18.211C155.647 18.092 155.858 17.9729 156.069 17.8777C156.257 17.7825 156.468 17.7111 156.655 17.6397C156.866 17.5683 157.077 17.4969 157.265 17.4493L157.359 17.4255C157.57 17.3779 157.804 17.3541 158.039 17.3303ZM142.868 32.2534L143.454 31.4442L143.524 31.349C143.571 31.2776 143.618 31.1824 143.642 31.111C143.689 31.0158 143.689 30.9444 143.712 30.8492C143.712 30.7778 143.712 30.6826 143.712 30.5874C143.712 30.5159 143.689 30.4207 143.642 30.3255C143.618 30.2541 143.595 30.1827 143.548 30.1113C143.524 30.0637 143.478 29.9923 143.431 29.9447L143.384 29.8971C143.313 29.8257 143.266 29.7781 143.196 29.7305C143.149 29.7067 143.079 29.6591 143.009 29.6353L140.687 28.6595C140.593 28.6357 140.523 28.6119 140.476 28.5881C140.406 28.5881 140.335 28.5643 140.242 28.5643H140.195C140.124 28.5643 140.031 28.5643 139.96 28.5643H139.937C139.867 28.5881 139.773 28.6119 139.702 28.6357H139.679C139.585 28.6595 139.515 28.6833 139.421 28.7309C139.351 28.7547 139.28 28.8023 139.233 28.8499H139.21C139.163 28.8975 139.093 28.9451 139.046 28.9927C138.999 29.0165 138.929 29.0879 138.882 29.1355V29.1593L138.249 29.8257C138.038 30.0399 137.827 30.2303 137.592 30.4207C137.498 30.516 137.381 30.5874 137.264 30.6826C137.147 30.754 137.029 30.8492 136.912 30.9206L136.889 30.9444C136.678 31.0634 136.49 31.1586 136.302 31.2538C136.091 31.349 135.927 31.4204 135.716 31.5156C135.575 31.5632 135.411 31.6108 135.271 31.6822C135.153 31.706 135.036 31.7536 134.872 31.7774C134.731 31.825 134.591 31.8488 134.473 31.8488C134.192 31.8964 133.887 31.9202 133.606 31.9202C133.371 31.9202 133.113 31.9202 132.879 31.8726C132.644 31.8488 132.41 31.825 132.199 31.7774C131.964 31.7298 131.777 31.6584 131.589 31.587C131.378 31.5394 131.191 31.4442 131.003 31.349L130.886 31.3014C130.675 31.2062 130.487 31.111 130.276 30.992C130.089 30.8968 129.901 30.7778 129.713 30.635C129.549 30.516 129.385 30.3731 129.221 30.2065C129.057 30.0637 128.893 29.9209 128.752 29.7543L128.729 29.7305C128.588 29.5877 128.471 29.4211 128.33 29.2307C128.189 29.0641 128.072 28.8737 127.955 28.7071L127.908 28.6357C127.791 28.4453 127.673 28.2549 127.58 28.0645C127.462 27.8741 127.369 27.6599 127.298 27.4695L127.251 27.398C127.181 27.1838 127.087 26.9696 127.017 26.7554C126.947 26.5174 126.9 26.2794 126.853 26.0652C126.806 25.851 126.759 25.613 126.736 25.3512C126.712 25.0894 126.712 24.8514 126.712 24.6134C126.712 24.3992 126.712 24.1373 126.736 23.8993C126.759 23.6375 126.806 23.4233 126.853 23.1853C126.9 22.9711 126.947 22.7331 127.017 22.4951C127.087 22.2571 127.158 22.0429 127.251 21.8287C127.345 21.6145 127.439 21.4003 127.556 21.2099C127.65 20.9956 127.767 20.8052 127.908 20.6148V20.591C128.025 20.4006 128.142 20.234 128.283 20.0674C128.424 19.877 128.541 19.7104 128.682 19.5676L128.752 19.4962C128.893 19.3296 129.057 19.1868 129.221 19.0202C129.362 18.8774 129.549 18.7346 129.737 18.6156C129.901 18.4728 130.089 18.3538 130.3 18.2348C130.487 18.1158 130.698 17.9967 130.909 17.9015L130.933 17.8777C131.355 17.6873 131.777 17.5445 132.222 17.4493C132.691 17.3541 133.137 17.3065 133.606 17.3065C133.747 17.3065 133.887 17.3303 134.051 17.3303C134.192 17.3541 134.333 17.3541 134.473 17.3779C134.614 17.4017 134.755 17.4255 134.895 17.4731C135.036 17.4969 135.177 17.5207 135.294 17.5683L135.364 17.5921L136.115 17.9015C136.255 17.9729 136.396 18.0205 136.537 18.092L136.889 18.3062C137.029 18.3776 137.147 18.4728 137.264 18.5442C137.381 18.6394 137.498 18.7346 137.615 18.806C137.733 18.9012 137.827 18.9964 137.92 19.0678C138.038 19.1868 138.155 19.282 138.249 19.401C138.436 19.6152 138.694 19.8532 138.882 20.0674C138.929 20.115 138.999 20.1864 139.046 20.234C139.116 20.2816 139.163 20.3292 139.233 20.353C139.28 20.4006 139.351 20.4244 139.421 20.472C139.491 20.4958 139.585 20.5196 139.655 20.5434L139.726 20.5672C139.89 20.6148 140.054 20.6386 140.218 20.6148C140.359 20.6148 140.523 20.5672 140.664 20.5196H140.687C141.015 20.3768 141.391 20.234 141.789 20.0674C142.211 19.9008 142.586 19.7342 142.938 19.5676C143.126 19.4962 143.266 19.401 143.384 19.3058C143.478 19.1868 143.571 19.0678 143.618 18.925L143.665 18.8536C143.712 18.687 143.735 18.5204 143.712 18.3776C143.712 18.211 143.642 18.0444 143.524 17.8539C143.384 17.6635 143.29 17.5207 143.22 17.4255C143.126 17.2589 143.009 17.1161 142.891 16.9971C142.774 16.8543 142.657 16.7115 142.54 16.5687C142.446 16.4497 142.305 16.3069 142.188 16.1641L141.883 15.8785C141.813 15.8071 141.719 15.7119 141.602 15.6167C141.508 15.5215 141.414 15.4501 141.32 15.3787L141.015 15.1169C140.922 15.0217 140.828 14.9503 140.734 14.8789C140.617 14.8074 140.523 14.736 140.429 14.6646L140.359 14.617C140.242 14.5456 140.124 14.4742 140.054 14.4028C139.96 14.3552 139.843 14.2838 139.702 14.2124C139.491 14.0696 139.257 13.9506 139.022 13.8316C138.788 13.6888 138.553 13.5936 138.319 13.4984C138.084 13.3794 137.827 13.2842 137.569 13.189C137.334 13.1176 137.076 13.0224 136.818 12.951H136.795C136.255 12.8082 135.74 12.6892 135.2 12.6178C134.661 12.5464 134.145 12.4988 133.606 12.4988C133.184 12.4988 132.785 12.5226 132.387 12.5702C131.988 12.6178 131.613 12.6654 131.214 12.7368C130.839 12.832 130.464 12.9272 130.089 13.0462C129.737 13.1652 129.362 13.2842 129.01 13.4508L128.963 13.4746C128.611 13.6412 128.26 13.8078 127.931 13.9744C127.603 14.1648 127.275 14.379 126.947 14.5932C126.642 14.8074 126.337 15.0455 126.032 15.2835C125.727 15.5215 125.446 15.7833 125.165 16.0451V16.0689C124.883 16.3307 124.649 16.6401 124.391 16.9257C124.156 17.2351 123.922 17.5445 123.711 17.8777C123.523 18.1872 123.312 18.5204 123.125 18.8774C122.937 19.2106 122.773 19.5676 122.609 19.9246C122.304 20.6624 122.069 21.4241 121.905 22.1857C121.741 22.9711 121.671 23.7803 121.671 24.6134C121.671 25.4464 121.741 26.2556 121.905 27.041C122.069 27.8265 122.304 28.5881 122.609 29.3259C122.773 29.6829 122.937 30.0399 123.125 30.3969C123.312 30.7302 123.5 31.0634 123.711 31.3728C123.945 31.706 124.156 32.0154 124.391 32.301C124.649 32.6104 124.883 32.8722 125.165 33.1578C125.704 33.7053 126.29 34.2051 126.923 34.6335C127.556 35.0619 128.236 35.4427 128.963 35.7759C129.315 35.9187 129.69 36.0615 130.065 36.1805C130.44 36.2995 130.839 36.4185 131.214 36.4899C131.988 36.6565 132.785 36.7279 133.606 36.7279C134.122 36.7279 134.661 36.7041 135.153 36.6327C135.693 36.5613 136.209 36.4423 136.748 36.2995L136.818 36.2757C136.935 36.2519 137.053 36.2043 137.193 36.1567C137.334 36.1091 137.475 36.0853 137.592 36.0377C137.709 35.9901 137.827 35.9425 137.944 35.8949C138.108 35.8235 138.225 35.7759 138.319 35.7283C138.436 35.7045 138.553 35.6331 138.671 35.5855C138.788 35.5141 138.905 35.4665 139.046 35.3951C139.14 35.3475 139.233 35.2761 139.351 35.2285C139.444 35.1571 139.562 35.0857 139.655 35.0381L139.726 34.9905C139.937 34.8715 140.171 34.7287 140.382 34.5859C140.617 34.4193 140.828 34.2527 141.039 34.1099C141.227 33.9433 141.414 33.7767 141.625 33.5862C141.813 33.4196 141.977 33.253 142.141 33.0626L142.282 32.9198C142.375 32.8484 142.446 32.7532 142.54 32.658L142.727 32.42C142.774 32.3724 142.821 32.301 142.868 32.2534Z" fill="white"/>
<path d="M195 43.5781H124.9C122.963 43.5781 121.393 45.113 121.393 47.0065V63.5712C121.393 65.4646 122.963 66.9995 124.9 66.9995H195C196.937 66.9995 198.508 65.4646 198.508 63.5712V47.0065C198.508 45.113 196.937 43.5781 195 43.5781Z" fill="#E51A4B"/>
<path d="M168.342 47.3027C168.423 47.3027 168.488 47.3027 168.537 47.3192C168.586 47.3357 168.651 47.3522 168.699 47.3687L168.748 47.4016C168.797 47.4346 168.845 47.4676 168.878 47.517C168.927 47.5665 168.959 47.6159 168.992 47.6983C170.745 51.1431 174.334 58.9558 175.682 62.3511C175.714 62.417 175.73 62.483 175.747 62.5489C175.763 62.5984 175.763 62.6478 175.763 62.6973C175.763 62.7632 175.763 62.8126 175.747 62.8786C175.73 62.928 175.698 62.9774 175.666 63.0269C175.633 63.0763 175.601 63.1258 175.552 63.1588C175.519 63.2082 175.471 63.2412 175.406 63.2577C175.357 63.2906 175.308 63.3071 175.243 63.3071C175.195 63.3236 175.13 63.3236 175.065 63.3236H173.116C173.051 63.3236 173.002 63.3236 172.954 63.3236C172.889 63.3071 172.84 63.2906 172.775 63.2741C172.726 63.2577 172.661 63.2412 172.613 63.2082C172.548 63.1752 172.499 63.1423 172.434 63.1258C172.385 63.0763 172.32 63.0434 172.272 63.0104C172.239 62.961 172.191 62.928 172.142 62.8786C172.109 62.8456 172.077 62.7961 172.044 62.7467C172.012 62.6972 171.996 62.6478 171.963 62.5984L170.827 60.093H165.874L164.737 62.5984C164.705 62.6478 164.689 62.6972 164.656 62.7467C164.624 62.7961 164.591 62.8456 164.542 62.8786C164.51 62.928 164.461 62.961 164.412 63.0104C164.364 63.0434 164.315 63.0763 164.266 63.1258C164.201 63.1423 164.153 63.1752 164.088 63.2082C164.039 63.2412 163.974 63.2577 163.925 63.2741C163.86 63.2906 163.795 63.3071 163.747 63.3236C163.698 63.3236 163.633 63.3236 163.584 63.3236H161.636C161.555 63.3236 161.506 63.3236 161.441 63.3071C161.392 63.3071 161.343 63.2906 161.295 63.2577C161.23 63.2412 161.181 63.2082 161.132 63.1588C161.1 63.1258 161.051 63.0763 161.035 63.0269C161.002 62.9774 160.97 62.928 160.954 62.8786C160.938 62.8126 160.938 62.7632 160.938 62.6973C160.938 62.6478 160.938 62.5984 160.954 62.5489C160.97 62.483 160.986 62.417 161.002 62.3511C162.383 58.8898 165.955 51.1431 167.709 47.6983C167.741 47.6159 167.774 47.5665 167.822 47.517C167.855 47.4676 167.904 47.4346 167.952 47.4016L168.001 47.3687C168.05 47.3522 168.099 47.3357 168.163 47.3192C168.212 47.3027 168.277 47.3027 168.342 47.3027ZM169.365 56.9119L168.342 54.6868L167.335 56.9119H169.365Z" fill="#FEFEFE"/>
<path fill-rule="evenodd" clip-rule="evenodd" d="M131.68 47.2373H142.592C144.963 47.2373 146.911 49.2152 146.911 51.6381V53.1874C146.911 55.6103 144.963 57.6047 142.576 57.6047H138.76V62.4505C138.76 62.9285 138.37 63.3241 137.883 63.3241H136.178C135.691 63.3241 135.301 62.9285 135.301 62.4505V57.0278C135.301 56.9619 135.301 56.896 135.317 56.8465L135.301 50.4184H131.793C131.355 50.4184 130.9 50.0228 130.9 49.5778V48.0285C130.9 47.5999 131.258 47.2373 131.68 47.2373ZM138.76 50.4184H142.397C143.176 50.4184 143.826 51.0612 143.826 51.8524V52.8907C143.826 53.6819 143.176 54.3247 142.397 54.3247H138.76V50.4184Z" fill="#FEFEFE"/>
<path fill-rule="evenodd" clip-rule="evenodd" d="M153.127 48.1603V60.1595H158.794C159.298 60.1595 159.72 60.5715 159.72 61.0825V62.4011C159.72 62.912 159.298 63.3241 158.794 63.3241H153.127H150.578H150.545H150.529H150.513H150.48H150.464H150.432H150.416L150.399 63.3076H150.367H150.351L150.318 63.2911H150.302L150.286 63.2746H150.269L150.237 63.2582H150.221L150.204 63.2417H150.172L150.156 63.2252H150.139L150.123 63.2087L150.107 63.1922L150.091 63.1757H150.058L150.042 63.1593L150.026 63.1428L150.01 63.1263L149.993 63.1098H149.977L149.961 63.0933L149.945 63.0768L149.928 63.0604L149.912 63.0439L149.896 63.0274L149.88 63.0109L149.863 62.9944V62.978L149.847 62.9615L149.831 62.945L149.815 62.912L149.798 62.8955V62.8791L149.782 62.8626L149.766 62.8461V62.8296L149.75 62.7966L149.734 62.7802V62.7637L149.717 62.7472V62.7142L149.701 62.6978V62.6813V62.6483L149.685 62.6318V62.6153V62.5824L149.669 62.5659V62.5494V62.5164V62.5V62.467V62.4505L149.652 62.4176V62.4011V60.1595V48.1603C149.652 47.6494 150.075 47.2373 150.578 47.2373H152.202C152.721 47.2373 153.127 47.6494 153.127 48.1603Z" fill="#FEFEFE"/>
<path d="M181.137 51.9178L178.214 48.028C178.166 47.9785 178.133 47.9291 178.084 47.8796C178.036 47.8302 177.987 47.7972 177.938 47.7478C177.89 47.6983 177.841 47.6653 177.776 47.6159C177.711 47.5829 177.646 47.55 177.581 47.5005C177.516 47.484 177.451 47.4511 177.386 47.4181C177.321 47.3851 177.256 47.3687 177.208 47.3522C177.143 47.3357 177.078 47.3192 177.013 47.3027C176.964 47.3027 176.899 47.3027 176.834 47.3027H174.885C174.821 47.3027 174.772 47.3027 174.707 47.3192C174.658 47.3192 174.609 47.3357 174.577 47.3687C174.528 47.3851 174.48 47.4181 174.447 47.4676C174.415 47.5005 174.398 47.55 174.382 47.5994C174.366 47.6489 174.35 47.6983 174.35 47.7478C174.35 47.8137 174.366 47.8631 174.382 47.9291C174.398 47.9785 174.415 48.028 174.447 48.0774C174.48 48.1433 174.512 48.2093 174.561 48.2752C175.567 49.874 177.435 52.4287 179.416 55.0494V62.4006C179.416 62.9115 179.822 63.3236 180.325 63.3236H181.965C182.469 63.3236 182.875 62.9115 182.875 62.4006V55C184.856 52.3958 186.691 49.874 187.697 48.2752C187.746 48.2093 187.779 48.1433 187.811 48.0774C187.844 48.028 187.86 47.9785 187.876 47.9291C187.892 47.8631 187.908 47.8137 187.908 47.7478C187.908 47.6983 187.892 47.6489 187.876 47.5994C187.86 47.55 187.844 47.5005 187.811 47.4676C187.779 47.4181 187.73 47.3851 187.681 47.3687C187.649 47.3357 187.6 47.3192 187.535 47.3192C187.486 47.3027 187.438 47.3027 187.373 47.3027H185.424C185.359 47.3027 185.294 47.3027 185.245 47.3027C185.18 47.3192 185.116 47.3357 185.051 47.3522C185.002 47.3687 184.937 47.3851 184.872 47.4181C184.807 47.4511 184.742 47.484 184.677 47.5005C184.612 47.55 184.547 47.5829 184.482 47.6159C184.417 47.6653 184.369 47.6983 184.32 47.7478C184.271 47.7972 184.222 47.8302 184.174 47.8796C184.125 47.9291 184.093 47.9785 184.06 48.028L181.137 51.9178Z" fill="#FEFEFE"/>
</svg>
