<svg width="202" height="44" viewBox="0 0 202 44" fill="none" xmlns="http://www.w3.org/2000/svg">
<path fill-rule="evenodd" clip-rule="evenodd" d="M202 0.0270769H195.341C192.58 0.0270769 189.968 1.25908 188.249 3.37108L170.533 26.2917L158.501 11.1692L156.646 8.84062L156.579 8.75938C156.267 8.31262 155.916 7.87938 155.55 7.45969L155.537 7.44615C154.955 6.78277 154.332 6.16 153.642 5.57785C153.628 5.56431 153.601 5.55077 153.601 5.53723C151.3 3.57415 148.539 2.13908 145.345 1.21846C145.237 1.19138 145.142 1.16431 145.034 1.12369C142.368 0.392615 139.39 0.0270769 136.142 0.0270769C128.86 0.0270769 122.987 1.89538 118.696 5.56431C114.352 9.28738 112.159 14.4455 112.159 20.8763V22.9748C112.159 23.6111 112.173 24.2338 112.213 24.8566C112.213 24.9108 112.227 24.9514 112.227 25.0055L112.173 25.4388L112.132 25.7366C111.753 28.5391 110.684 30.5157 108.884 31.7883C107.043 33.1015 104.309 33.7649 100.75 33.7649C96.6893 33.7649 93.59 32.8308 91.5327 30.9895C89.4755 29.1618 88.474 26.4948 88.474 22.8529V21.1877C88.474 19.7932 88.6093 18.5206 88.88 17.3698C89.3266 15.488 90.1387 13.9311 91.3026 12.7397C91.3703 12.6585 91.4651 12.5772 91.5463 12.496C93.6035 10.5735 96.7434 9.59877 100.871 9.59877C104.255 9.59877 106.921 10.2351 108.762 11.4671C109.127 11.7108 109.466 11.9815 109.763 12.2794C110.995 10.3434 113.553 6.22769 115.367 3.30338C111.564 1.13723 106.691 0.0270769 100.871 0.0270769C99.8563 0.0270769 98.8683 0.0541538 97.9074 0.135385C92.0335 0.555077 87.2017 2.24738 83.5069 5.19877C83.4527 5.23938 83.3986 5.28 83.3445 5.32062C83.2633 5.38831 83.1685 5.456 83.0873 5.52369C82.0587 6.37662 81.1519 7.32431 80.3669 8.33969C80.2992 8.40738 80.2451 8.48862 80.191 8.56985C79.2842 9.70708 78.4992 10.9526 77.8224 12.2794L69.9049 27.9975L58.4277 4.52185C57.0743 1.76 54.2321 0 51.1192 0H0V10.5194H17.9195V44H29.9786V10.5194H47.5191L63.5843 43.6209H70.4733C73.708 43.6209 76.0224 41.9828 77.5112 39.1532L79.6225 34.9563C80.4616 36.2154 81.4632 37.3391 82.6407 38.3409C86.701 41.8203 92.6155 43.5803 100.208 43.5803C107.381 43.5803 113.052 42.1182 117.086 39.2345C117.492 38.9366 117.898 38.6252 118.277 38.3003C118.277 38.3003 118.277 38.3003 118.277 38.2868C118.29 38.3003 118.317 38.3139 118.331 38.3274C122.391 41.7797 128.346 43.5397 136.061 43.5397C139.458 43.5397 142.544 43.1742 145.291 42.4431C147.159 41.9422 148.878 41.2788 150.421 40.4529C150.651 40.3175 150.894 40.1957 151.124 40.0603C152.072 39.5052 152.952 38.896 153.764 38.2055C156.403 35.9852 158.23 33.1692 159.231 29.8117C159.272 29.6898 159.313 29.5545 159.34 29.4326L159.732 29.9065L169.612 41.9828H170.952L190.212 17.6271V43.824H202V0V0.0270769ZM128.143 31.8289V12.7938C128.143 11.6837 129.348 10.9662 130.349 11.4806L148.715 20.9982C149.785 21.5532 149.785 23.056 148.715 23.6111L130.349 33.1286C130.119 33.2505 129.876 33.3046 129.645 33.3046C128.86 33.3046 128.143 32.6818 128.143 31.8289Z" fill="white"/>
</svg>
